<svg width="21" height="20" viewBox="0 0 21 20" fill="none" xmlns="http://www.w3.org/2000/svg">
<g clip-path="url(#clip0_3087_16619)">
<path d="M1.81298 0.625183C1.29902 0.625183 0.876703 1.0481 0.876706 1.56208C0.835928 2.01607 1.54004 2.01607 1.49926 1.56208C1.49926 1.38355 1.63447 1.25081 1.81298 1.25081H14.9392C15.1177 1.25081 15.2499 1.38474 15.2505 1.56454V17.1883C15.2505 18.3943 16.2309 19.3752 17.4374 19.3752C18.6438 19.3752 19.6267 18.3923 19.6267 17.1858V4.68767C19.6267 4.68674 19.6267 4.68651 19.6267 4.68533C19.6258 4.17241 19.2038 3.74904 18.6898 3.74904H16.8124C16.3864 3.73959 16.3864 4.38346 16.8124 4.37405H18.6898C18.8683 4.37405 19.0013 4.50817 19.0017 4.68775V17.1859C19.0017 18.057 18.3084 18.7502 17.4374 18.7502C16.5663 18.7502 15.8755 18.0588 15.8755 17.1884V1.56223C15.8736 1.04954 15.4532 0.625327 14.9392 0.625327L1.81298 0.625183ZM0.876706 2.81207V17.1858C0.876706 18.3923 1.85712 19.3752 3.06359 19.3752H14.9392C15.3652 19.3846 15.3652 18.7408 14.9392 18.7502H3.06359C2.19256 18.7502 1.49926 18.0569 1.49926 17.1858V2.81207C1.50239 2.63589 1.35928 2.49203 1.16723 2.49502C0.992297 2.51534 0.873666 2.65185 0.876706 2.81207ZM3.06359 2.49837C2.89006 2.49775 2.74921 2.63853 2.74987 2.81207V4.0627C2.7505 4.23528 2.89101 4.37464 3.06359 4.37398H13.6886C13.8602 4.37335 13.9992 4.23433 13.9999 4.0627V2.81207C14.0005 2.63949 13.8612 2.49906 13.6886 2.49837H3.06359ZM3.37487 3.12335H13.3749V3.74897H3.37487V3.12335ZM3.06359 5.62396C2.88982 5.62334 2.74887 5.76453 2.74987 5.9383V9.68649C2.74925 9.86002 2.89006 10.0008 3.06359 10.0002H6.81176C6.98554 10.0011 7.12676 9.86026 7.12609 9.68649V5.9383C7.12703 5.76428 6.98578 5.62296 6.81176 5.62396H3.06359ZM9.93798 5.62396C9.52091 5.62396 9.52091 6.24958 9.93798 6.24958H13.6886C14.1057 6.24958 14.1057 5.62396 13.6886 5.62396H9.93798ZM3.37487 6.24958H6.50048V9.37517H3.37487V6.24958ZM8.06237 8.12519H11.188C11.6051 8.12519 11.6051 7.49957 11.188 7.49957H8.04742C7.61539 7.51953 7.64529 8.14513 8.06237 8.12519ZM12.4386 8.12519H13.6886C14.1057 8.12519 14.1057 7.49957 13.6886 7.49957H12.4224C11.9892 7.52118 12.0215 8.14676 12.4386 8.12519ZM8.06237 10.0002H13.6886C14.0961 9.99073 14.0961 9.3842 13.6886 9.37517H8.04742C7.62545 9.40376 7.65447 10.0106 8.06237 10.0002ZM3.04742 11.2508C2.64693 11.2991 2.67635 11.8652 3.06361 11.8734H4.31361C4.74212 11.9109 4.77842 11.2599 4.33101 11.2502L3.04742 11.2508ZM5.56421 11.8734H13.6886C14.1171 11.9109 14.1534 11.2599 13.7234 11.2496C13.7118 11.2494 13.7002 11.2498 13.6886 11.2508H5.54803C5.14754 11.2991 5.17695 11.8652 5.56421 11.8734ZM3.06787 13.124C2.66031 13.1334 2.66031 13.74 3.06787 13.749H8.69226C9.09981 13.7395 9.09981 13.133 8.69226 13.124H3.06787ZM9.94226 13.124C9.76967 13.1246 9.63032 13.2651 9.63098 13.4377V17.1858C9.63004 17.3587 9.76943 17.4995 9.94226 17.5002H13.6935C13.8663 17.4996 14.0058 17.3587 14.0048 17.1858V13.4377C14.0054 13.2651 13.8661 13.1247 13.6935 13.124H9.94226ZM10.2541 13.749H13.3798V16.8746H10.2541V13.749ZM3.06787 14.999C2.65079 14.999 2.65079 15.6246 3.06787 15.6246H6.19165C6.60872 15.6246 6.60872 14.999 6.19165 14.999H3.06787ZM7.44165 14.999C7.02457 14.999 7.02457 15.6246 7.44165 15.6246H8.69226C9.10933 15.6246 9.10933 14.999 8.69226 14.999H7.44165ZM3.06787 17.5002H8.69226C9.10933 17.5002 9.10933 16.8746 8.69226 16.8746H3.05169C2.61845 16.8962 2.65078 17.5218 3.06787 17.5002Z" fill="black"/>
</g>
<defs>
<clipPath id="clip0_3087_16619">
<rect width="20" height="20" fill="white" transform="translate(0.25)"/>
</clipPath>
</defs>
</svg>
