<svg width="20" height="20" viewBox="0 0 20 20" fill="none" xmlns="http://www.w3.org/2000/svg">
<g clip-path="url(#clip0_3087_16612)">
<path d="M20 9.99947C20 9.52403 19.7479 9.09078 19.3244 8.83953L18.2107 8.18434C18.6398 7.9296 19.0221 7.70238 19.3253 7.52195C19.7479 7.26981 20 6.83656 20 6.3629C20 5.88925 19.7479 5.456 19.3253 5.20339C17.9332 4.37549 13.2129 1.57036 10.886 0.236422C10.3471 -0.0729954 9.69193 -0.0853959 9.10952 0.239107C9.10952 0.239107 2.78139 3.95604 0.675554 5.203C0.252145 5.45421 0 5.88746 0 6.3629C0 6.83656 0.252145 7.26981 0.674702 7.52242C0.977898 7.70272 1.36014 7.92989 1.78905 8.18451L0.675597 8.83953C0.252145 9.09078 0 9.52403 0 9.99947C0 10.4731 0.252145 10.9064 0.674702 11.159C0.977898 11.3393 1.36014 11.5665 1.78905 11.8211L0.675597 12.4761C0.252145 12.7273 0 13.1606 0 13.636C0 14.1097 0.252145 14.5429 0.674702 14.7956C2.47602 15.8667 6.90341 18.4951 9.114 19.7625C9.38477 19.9179 9.69197 20 10 20C10.3081 20 10.6153 19.9179 10.8869 19.762C13.0966 18.4951 17.524 15.8667 19.3253 14.7951C19.7479 14.5429 20 14.1097 20 13.636C20 13.1606 19.7479 12.7273 19.3244 12.4761L18.2108 11.8209C18.6398 11.5662 19.0221 11.3389 19.3253 11.1585C19.7479 10.9064 20 10.4731 20 9.99947ZM1.13992 6.74229C1.07067 6.70057 0.909077 6.5807 0.909077 6.36367C0.909077 6.1457 1.06977 6.02677 1.13902 5.9859C3.24218 4.74035 9.56144 1.02895 9.56055 1.02938C9.84998 0.866466 10.166 0.872687 10.4341 1.02627C12.7548 2.35662 17.4707 5.15847 18.8601 5.98501C18.9293 6.02672 19.0909 6.1466 19.0909 6.36363C19.0909 6.58066 18.9293 6.70053 18.8601 6.74182C17.0614 7.8116 12.6394 10.4372 10.435 11.7006C10.1616 11.8568 9.83754 11.8564 9.56587 11.701C7.36062 10.4372 2.93855 7.81164 1.13992 6.74229ZM18.861 13.2586C18.9302 13.2994 19.0909 13.4184 19.0909 13.6364C19.0909 13.8534 18.9293 13.9733 18.8601 14.0146C17.0614 15.0843 12.6394 17.71 10.435 18.9733C10.1616 19.1296 9.83754 19.1291 9.56587 18.9737C7.36062 17.71 2.93855 15.0843 1.13992 14.015C1.07067 13.9733 0.909077 13.8534 0.909077 13.6364C0.909077 13.4184 1.06977 13.2995 1.13902 13.2586L2.68159 12.3509C4.76659 13.5867 7.51697 15.2106 9.114 16.1261C9.38477 16.2815 9.69197 16.3636 10 16.3636C10.3081 16.3636 10.6153 16.2815 10.8869 16.1257C12.4833 15.2104 15.2334 13.5869 17.3183 12.3508L18.861 13.2586ZM18.8601 10.3782C17.0614 11.448 12.6394 14.0736 10.435 15.337C10.1616 15.4932 9.83754 15.4928 9.56587 15.3374C7.36062 14.0736 2.93855 11.448 1.13992 10.3786C1.07067 10.3369 0.909077 10.2171 0.909077 10C0.909077 9.78205 1.06977 9.66312 1.13902 9.62225L2.68159 8.71454C4.76659 9.95038 7.51697 11.5742 9.114 12.4898C9.38477 12.6451 9.69197 12.7273 10 12.7273C10.3081 12.7273 10.6153 12.6451 10.8869 12.4893C12.4833 11.5741 15.2334 9.95051 17.3183 8.7145L18.861 9.62225C18.9303 9.66308 19.091 9.78205 19.091 10C19.0909 10.2171 18.9293 10.3369 18.8601 10.3782Z" fill="black"/>
</g>
<defs>
<clipPath id="clip0_3087_16612">
<rect width="20" height="20" fill="white"/>
</clipPath>
</defs>
</svg>
