<svg width="15" height="16" viewBox="0 0 15 16" fill="none" xmlns="http://www.w3.org/2000/svg">
<g clip-path="url(#clip0_1677_112302)">
<path d="M0 5.89062V13.625C0 13.8736 0.0987721 14.1121 0.274587 14.2879C0.450403 14.4637 0.68886 14.5625 0.9375 14.5625H5.89453C6.02502 14.5627 6.15288 14.5992 6.26382 14.6679C6.37475 14.7366 6.46437 14.8348 6.52266 14.9516L6.60234 15.1109C6.66063 15.2277 6.75025 15.3259 6.86118 15.3946C6.97212 15.4633 7.09998 15.4998 7.23047 15.5H7.76953C7.90002 15.4998 8.02788 15.4633 8.13882 15.3946C8.24975 15.3259 8.33937 15.2277 8.39766 15.1109L8.47734 14.9516C8.53563 14.8348 8.62525 14.7366 8.73618 14.6679C8.84712 14.5992 8.97498 14.5627 9.10547 14.5625H14.0625C14.3111 14.5625 14.5496 14.4637 14.7254 14.2879C14.9012 14.1121 15 13.8736 15 13.625V5.89062C15 5.64198 14.9012 5.40353 14.7254 5.22771C14.5496 5.0519 14.3111 4.95312 14.0625 4.95312H0.9375C0.68886 4.95312 0.450403 5.0519 0.274587 5.22771C0.0987721 5.40353 0 5.64198 0 5.89062Z" fill="#00BEBD"/>
<path d="M13.3594 3.54689H9.76406C8.93074 3.54413 8.12528 3.8468 7.5 4.39767C6.87472 3.8468 6.06926 3.54413 5.23594 3.54689H1.64062C1.45414 3.54689 1.2753 3.62097 1.14344 3.75283C1.01158 3.8847 0.9375 4.06354 0.9375 4.25002V12.4531C0.9375 12.6396 1.01158 12.8185 1.14344 12.9503C1.2753 13.0822 1.45414 13.1563 1.64062 13.1563H5.23594C5.62767 13.1538 6.01597 13.2294 6.37814 13.3787C6.74032 13.528 7.06911 13.748 7.34531 14.0258C7.3671 14.0478 7.39302 14.0652 7.42158 14.0771C7.45014 14.089 7.48078 14.0951 7.51172 14.0951C7.54266 14.0951 7.57329 14.089 7.60185 14.0771C7.63041 14.0652 7.65634 14.0478 7.67812 14.0258C7.95155 13.7508 8.27654 13.5325 8.63448 13.3832C8.99242 13.234 9.37627 13.1569 9.76406 13.1563H13.3594C13.5459 13.1563 13.7247 13.0822 13.8566 12.9503C13.9884 12.8185 14.0625 12.6396 14.0625 12.4531V4.25002C14.0625 4.06354 13.9884 3.8847 13.8566 3.75283C13.7247 3.62097 13.5459 3.54689 13.3594 3.54689Z" fill="#F3F3F3"/>
<path d="M7.96875 7.0625H13.125V7.53125H7.96875V7.0625Z" fill="#D9D9D9"/>
<path d="M7.96875 6.125H13.125V6.59375H7.96875V6.125Z" fill="#D9D9D9"/>
<path d="M7.96875 5.1875H13.125V5.65625H7.96875V5.1875Z" fill="#D9D9D9"/>
<path d="M7.96875 4.25H13.125V4.71875H7.96875V4.25Z" fill="#D9D9D9"/>
<path d="M1.875 7.0625H7.03125V7.53125H1.875V7.0625Z" fill="#D9D9D9"/>
<path d="M1.875 6.125H7.03125V6.59375H1.875V6.125Z" fill="#D9D9D9"/>
<path d="M1.875 5.1875H7.03125V5.65625H1.875V5.1875Z" fill="#D9D9D9"/>
<path d="M1.875 4.25H7.03125V4.71875H1.875V4.25Z" fill="#D9D9D9"/>
<path d="M7.96876 4.25002V4.71877H10.8141C10.7574 4.88006 10.6884 5.03677 10.6078 5.18752H7.96876V5.65627H10.3125C10.184 5.82448 10.0413 5.98131 9.88595 6.12502H7.96876V6.59377H9.25079C8.71802 6.89972 8.11438 7.06072 7.50001 7.06072C6.88564 7.06072 6.28199 6.89972 5.74923 6.59377H7.03126V6.12502H5.11407C4.95868 5.98131 4.81597 5.82448 4.68751 5.65627H7.03126V5.18752H4.3922C4.31157 5.03677 4.24262 4.88006 4.18595 4.71877H7.03126V4.25002H4.0547C4.00742 4.01864 3.98386 3.78305 3.98438 3.54689H5.23595C6.06927 3.54413 6.87473 3.8468 7.50001 4.39767C8.12529 3.8468 8.93074 3.54413 9.76407 3.54689H11.0156C11.0162 3.78305 10.9926 4.01864 10.9453 4.25002H7.96876Z" fill="#D9D9D9"/>
<path d="M4.05469 4.25H7.03125V4.71875H4.18594C4.13124 4.56577 4.08738 4.40914 4.05469 4.25Z" fill="#C8C8C8"/>
<path d="M4.39062 5.1875H7.02969V5.65625H4.68594C4.57556 5.50785 4.47683 5.35113 4.39062 5.1875Z" fill="#C8C8C8"/>
<path d="M5.11328 6.125H7.03047V6.59375H5.74844C5.51908 6.46294 5.30589 6.30561 5.11328 6.125Z" fill="#C8C8C8"/>
<path d="M7.96875 6.125H9.88594C9.69333 6.30561 9.48014 6.46294 9.25078 6.59375H7.96875V6.125Z" fill="#C8C8C8"/>
<path d="M7.96875 5.1875H10.6078C10.5216 5.35113 10.4229 5.50785 10.3125 5.65625H7.96875V5.1875Z" fill="#C8C8C8"/>
<path d="M10.9453 4.25C10.9126 4.40914 10.8688 4.56577 10.8141 4.71875H7.96875V4.25H10.9453Z" fill="#C8C8C8"/>
<path d="M7.5 6.59375C9.18274 6.59375 10.5469 5.22962 10.5469 3.54688C10.5469 1.86413 9.18274 0.5 7.5 0.5C5.81726 0.5 4.45312 1.86413 4.45312 3.54688C4.45312 5.22962 5.81726 6.59375 7.5 6.59375Z" fill="white"/>
<path d="M7.5 5.89062C8.79442 5.89062 9.84375 4.84129 9.84375 3.54688C9.84375 2.25246 8.79442 1.20312 7.5 1.20312C6.20558 1.20312 5.15625 2.25246 5.15625 3.54688C5.15625 4.84129 6.20558 5.89062 7.5 5.89062Z" fill="#FFAC00"/>
<path d="M1.875 8H7.03125V8.46875H1.875V8Z" fill="#D9D9D9"/>
<path d="M1.875 8.9375H7.03125V9.40625H1.875V8.9375Z" fill="#D9D9D9"/>
<path d="M7.96875 11.75H13.125V12.2188H7.96875V11.75Z" fill="#D9D9D9"/>
<path d="M1.875 9.875H7.03125V10.3438H1.875V9.875Z" fill="#D9D9D9"/>
<path d="M1.875 10.8125H7.03125V11.2812H1.875V10.8125Z" fill="#D9D9D9"/>
<path d="M1.875 11.75H7.03125V12.2188H1.875V11.75Z" fill="#D9D9D9"/>
<path d="M7.96875 8H10.0781V8.46875H7.96875V8Z" fill="#D9D9D9"/>
<path d="M7.96875 8.9375H10.0781V9.40625H7.96875V8.9375Z" fill="#D9D9D9"/>
<path d="M7.96875 9.875H10.0781V10.3438H7.96875V9.875Z" fill="#D9D9D9"/>
<path d="M7.96875 10.8125H10.0781V11.2812H7.96875V10.8125Z" fill="#D9D9D9"/>
<path d="M12.6562 8H11.25C10.9911 8 10.7812 8.20987 10.7812 8.46875V10.8125C10.7812 11.0714 10.9911 11.2812 11.25 11.2812H12.6562C12.9151 11.2812 13.125 11.0714 13.125 10.8125V8.46875C13.125 8.20987 12.9151 8 12.6562 8Z" fill="#50D9D7"/>
<path d="M6.79688 3.07812V3.54688H7.03125V4.95312H7.96875V3.07812H6.79688Z" fill="white"/>
<path d="M7.5 2.60938C7.75888 2.60938 7.96875 2.39951 7.96875 2.14062C7.96875 1.88174 7.75888 1.67188 7.5 1.67188C7.24112 1.67188 7.03125 1.88174 7.03125 2.14062C7.03125 2.39951 7.24112 2.60938 7.5 2.60938Z" fill="white"/>
</g>
<defs>
<clipPath id="clip0_1677_112302">
<rect width="15" height="15" fill="white" transform="translate(0 0.5)"/>
</clipPath>
</defs>
</svg>
