<svg width="15" height="16" viewBox="0 0 15 16" fill="none" xmlns="http://www.w3.org/2000/svg">
<circle cx="7.5" cy="8" r="7.5" fill="#38A938"/>
<g filter="url(#filter0_d_3251_30698)">
<path d="M11.9026 3.04087C11.8304 2.99047 11.7361 2.98649 11.66 3.03L2.11454 8.48451C2.03664 8.5289 1.99224 8.61502 2.00112 8.70425C2.01001 8.79348 2.07037 8.86916 2.15538 8.89735L5.00589 9.84744L6.10468 12.8509C6.13775 12.9412 6.22364 13 6.31796 13C6.32661 13 6.3355 12.9996 6.34415 12.9984C6.40555 12.9914 6.45722 12.9584 6.49374 12.9126L6.49596 12.9143L8.11295 10.8832L10.3372 11.6246C10.3607 11.6326 10.3849 11.6364 10.4091 11.6364C10.4499 11.6364 10.4906 11.6253 10.5263 11.6038C10.5833 11.5696 10.6224 11.5121 10.6333 11.4464L11.9969 3.26463C12.0113 3.17802 11.9747 3.09102 11.9026 3.04087ZM2.78148 8.62699L10.3441 4.30538L5.12212 9.40722L2.78148 8.62699ZM6.45513 10.0166C6.43182 10.0483 6.41695 10.0854 6.41231 10.1245L6.20702 11.8073L5.44575 9.72652L9.89066 5.38394L6.45513 10.0166ZM6.64106 12.0022L6.82979 10.4554L7.65379 10.7301L6.64106 12.0022ZM10.2286 11.1094L7.00717 10.0356L11.3934 4.1206L10.2286 11.1094Z" fill="white"/>
</g>
</svg>
