<svg width="15" height="16" viewBox="0 0 15 16" fill="none" xmlns="http://www.w3.org/2000/svg">
<g clip-path="url(#clip0_1677_112263)">
<path d="M7.5 0.5C7.33948 0.5 7.18014 0.505039 7.02211 0.514971L0.77792 4.67003C0.279961 5.67333 0 6.80398 0 8C0 10.1936 0.941748 12.1673 2.44304 13.5387C2.44304 13.5387 4.88728 15.22 7.5 15.22C10.9958 15.22 14.6324 12.1421 14.6324 8C14.6324 3.0887 9.95953 0.912588 9.95953 0.912588C9.18905 0.645254 8.36147 0.5 7.5 0.5Z" fill="#008CDF"/>
<path d="M14.9249 6.94643L13.1067 6.73889C13.1067 10.881 9.74884 14.2389 5.6067 14.2389C4.47546 14.2389 3.40325 13.9873 2.44141 13.5388C3.02371 14.0707 3.69022 14.5121 4.41859 14.8405L4.86021 14.8159L5.42022 15.2083C6.08014 15.3982 6.77737 15.5 7.4984 15.5C11.6405 15.5 14.9984 12.1421 14.9984 8.00001C14.9984 7.64238 14.9733 7.29064 14.9249 6.94643Z" fill="#0069D0"/>
<path d="M10.6713 1.20223C10.4396 1.09395 10.2015 0.997148 9.95759 0.912598L9.29428 1.49596C9.11261 1.65129 9.06916 1.91924 9.20279 2.12678C9.33125 2.32629 9.59097 2.3959 9.80955 2.30358L9.94379 2.24687C10.1086 2.17726 10.3018 2.20245 10.4354 2.32148C10.6716 2.53189 10.6305 2.90376 10.3654 3.06059L8.80775 3.98229C8.5035 4.16232 8.31026 4.4896 8.31659 4.84307C8.32315 5.21022 8.52887 5.50925 8.94231 5.54733C9.79784 5.62614 9.67467 4.7197 10.1772 4.7197H11.9006C12.1629 4.7197 12.3904 4.91584 12.4131 5.1772C12.439 5.47497 12.205 5.72467 11.9126 5.72467H9.846C9.04218 5.72467 8.34122 6.34409 8.31708 7.14756C8.29215 7.97895 8.95866 8.66074 9.78445 8.66074H9.99462C10.3955 8.66074 10.7204 8.9857 10.7204 9.38654V11.9658C10.7204 12.0424 10.7339 12.1179 10.7592 12.1883L11.3661 12.1753L13.256 9.10186L13.4989 7.34048L14.115 6.44842C14.115 6.44845 12.924 2.25524 10.6713 1.20223Z" fill="#98DB7C"/>
<path d="M14.9252 6.94645C14.5671 4.3966 12.9213 2.25623 10.6719 1.20227C12.1668 2.57331 13.107 4.55061 13.107 6.73891C13.107 8.88661 12.2065 10.8211 10.7598 12.1883C10.8485 12.4417 11.1 12.6177 11.3922 12.5759C11.5786 12.5493 11.7369 12.4239 11.8298 12.2601L13.6198 9.10376C13.7783 8.82435 13.8191 8.49338 13.7333 8.18383L13.5945 7.68324C13.5489 7.51874 13.6834 7.36001 13.8531 7.37802L13.9519 7.38848C14.2176 7.41667 14.483 7.33279 14.6843 7.15707L14.9252 6.94645Z" fill="#77CC7D"/>
<path d="M7.4294 1.16306L7.02153 0.514954C4.27829 0.687043 1.937 2.33215 0.777344 4.67001L1.24996 7.93497C1.30299 8.30145 1.52096 8.62345 1.84149 8.80887C2.02589 8.91551 2.10657 9.13954 2.03254 9.33926L1.87117 9.77458C1.72598 10.1663 1.84853 10.6069 2.17507 10.8674L2.606 11.2112C2.75339 11.3288 2.87128 11.4793 2.9502 11.6505L4.06996 14.0804L4.72445 14.5423L5.18661 14.2272L5.019 13.5267C4.92446 13.1316 4.97512 12.7157 5.16171 12.3548L5.88851 10.9492C6.08869 10.5621 5.90494 10.087 5.49631 9.93539L4.89921 9.71379C4.70954 9.64342 4.58371 9.46245 4.58371 9.26019V9.21358C4.58371 8.94633 4.36706 8.72971 4.09984 8.72971H3.06183C2.80744 8.72971 2.55757 8.66288 2.33714 8.53588L2.08393 8.39001C1.89159 8.27918 1.76075 8.08623 1.72899 7.86654L1.71282 7.75462C1.6721 7.47308 1.79966 7.1937 2.03904 7.03998L2.18784 6.94445C2.36811 6.82872 2.60301 6.84528 2.76525 6.98514L2.89788 7.09948C3.05937 7.2387 3.311 7.1562 3.35869 6.94837L3.50014 6.33205C3.57552 6.00369 3.81622 5.73815 4.13567 5.63101L5.17958 5.28091C5.47771 5.18092 5.60277 4.82763 5.43396 4.56238L4.95941 3.81668C4.82901 3.61178 4.56692 3.53529 4.34676 3.63788L3.95485 3.82055C3.75215 3.91506 3.49958 3.87454 3.36276 3.69762C3.18625 3.4694 3.25718 3.14151 3.5062 3.00481L4.49113 2.46405C4.81785 2.28466 5.22733 2.3819 5.43851 2.68902L5.53003 2.82211C5.66535 3.01907 5.88903 3.1367 6.12801 3.1367H6.57121C6.86503 3.1367 7.12984 2.95957 7.24202 2.68805L7.50578 2.04964C7.62575 1.75922 7.59728 1.42866 7.4294 1.16306Z" fill="#98DB7C"/>
<path d="M4.42 14.8406C4.7425 14.9861 5.07675 15.109 5.4216 15.2083L5.18693 14.2272C4.80572 14.206 4.43415 14.1566 4.07031 14.0804L4.42 14.8406Z" fill="#77CC7D"/>
</g>
<defs>
<clipPath id="clip0_1677_112263">
<rect width="15" height="15" fill="white" transform="translate(0 0.5)"/>
</clipPath>
</defs>
</svg>
