<svg width="41" height="40" viewBox="0 0 41 40" fill="none" xmlns="http://www.w3.org/2000/svg">
<path d="M16.1992 32C25.0358 32 32.1992 24.9747 32.1992 16.3086C32.1992 7.64247 25.0358 0.617188 16.1992 0.617188C7.36266 0.617188 0.199219 7.64247 0.199219 16.3086C0.199219 24.9747 7.36266 32 16.1992 32Z" fill="#BAC8D9"/>
<g clip-path="url(#clip0_1677_111924)">
<path fill-rule="evenodd" clip-rule="evenodd" d="M4.67469 24.2063C4.27633 24.2063 3.97171 23.9016 3.97171 23.5267V23.4798L3.22185 24.0657C2.91722 24.3 2.49543 24.2531 2.2611 23.9485C2.00334 23.6439 2.07364 23.1986 2.37827 22.9643L3.97171 21.7224V20.457H2.70633L1.44095 22.0504C1.30035 22.2145 1.11289 22.3082 0.901993 22.3082C0.737963 22.3082 0.597365 22.2613 0.456767 22.1676C0.152139 21.9333 0.105274 21.488 0.339603 21.1834L0.925426 20.457H0.901993C0.503633 20.457 0.199005 20.1289 0.199005 19.754C0.199005 19.3556 0.503633 19.051 0.901993 19.051H0.925426L0.339603 18.3246C0.105274 18.02 0.152139 17.5747 0.456767 17.3404C0.761395 17.1061 1.20662 17.153 1.44095 17.4576L2.70633 19.051H3.97171V17.7856L2.37827 16.5437C2.07364 16.2859 2.00334 15.8641 2.2611 15.5595C2.49543 15.2549 2.91722 15.1846 3.22185 15.4424L3.97171 16.0047V15.9813C3.97171 15.6064 4.27633 15.2783 4.67469 15.2783C5.04962 15.2783 5.35425 15.6064 5.35425 15.9813V16.0047L6.1041 15.4424C6.40873 15.1846 6.85396 15.2549 7.08828 15.5595C7.32261 15.8641 7.27575 16.2859 6.97112 16.5437L5.35425 17.7856V19.051H6.61963L7.885 17.4576C8.11933 17.153 8.56456 17.1061 8.86919 17.3404C9.17381 17.5747 9.22068 18.02 8.98635 18.3246L8.40053 19.051H8.42396C8.82232 19.051 9.12695 19.3556 9.12695 19.754C9.12695 20.1289 8.82232 20.457 8.42396 20.457H8.40053L8.98635 21.1834C9.22068 21.488 9.17381 21.9333 8.86919 22.1676C8.72859 22.2613 8.58799 22.3082 8.42396 22.3082C8.2365 22.3082 8.0256 22.2145 7.885 22.0504L6.61963 20.457H5.35425V21.7224L6.97112 22.9643C7.27575 23.1986 7.32261 23.6439 7.08828 23.9485C6.94769 24.136 6.73679 24.2063 6.52589 24.2063C6.3853 24.2063 6.22127 24.1594 6.1041 24.0657L5.35425 23.5033V23.5267C5.35425 23.9016 5.04962 24.2063 4.67469 24.2063ZM16.7426 37.8208C16.6021 37.8208 16.438 37.7739 16.3209 37.6802C16.0162 37.4459 15.9459 37.0006 16.2037 36.696L16.977 35.7118H16.7426C16.3677 35.7118 16.0397 35.3838 16.0397 35.0088C16.0397 34.6105 16.3677 34.3059 16.7426 34.3059H16.977L16.2037 33.3217C15.9459 33.017 16.0162 32.5718 16.3209 32.3375C16.6255 32.1032 17.0473 32.15 17.305 32.4547L18.7579 34.3059H20.3279V32.7358L18.4767 31.283C18.1721 31.0252 18.1252 30.6035 18.3595 30.2988C18.5938 29.9942 19.0391 29.9239 19.3437 30.1817L20.3279 30.9549V30.7206C20.3279 30.3457 20.6559 30.0176 21.0309 30.0176C21.4058 30.0176 21.7339 30.3457 21.7339 30.7206V30.9549L22.718 30.1817C23.0227 29.9239 23.4679 29.9942 23.7022 30.2988C23.9366 30.6035 23.8897 31.0252 23.5851 31.283L21.7339 32.7358V34.3059H23.3039L24.7567 32.4547C25.0145 32.15 25.4363 32.1032 25.7409 32.3375C26.0455 32.5718 26.1158 33.017 25.8581 33.3217L25.0848 34.3059H25.3191C25.694 34.3059 26.0221 34.6105 26.0221 35.0088C26.0221 35.3838 25.694 35.7118 25.3191 35.7118H25.0848L25.8581 36.696C26.1158 37.0006 26.0455 37.4459 25.7409 37.6802C25.6237 37.7739 25.4597 37.8208 25.3191 37.8208C25.1082 37.8208 24.8973 37.7271 24.7567 37.563L23.3039 35.7118H21.7339V37.2818L23.5851 38.7347C23.8897 38.9924 23.9366 39.4142 23.7022 39.7189C23.5616 39.9063 23.3507 40.0001 23.1633 40.0001C22.9992 40.0001 22.8586 39.9532 22.718 39.836L21.7339 39.0627V39.2971C21.7339 39.672 21.4292 40.0001 21.0309 40.0001C20.6559 40.0001 20.3279 39.672 20.3279 39.2971V39.0627L19.3437 39.836C19.0391 40.0704 18.5938 40.0235 18.3595 39.7189C18.1252 39.4142 18.1721 38.9924 18.4767 38.7347L20.3279 37.2818V35.7118H18.7579L17.305 37.563C17.1644 37.7271 16.9535 37.8208 16.7426 37.8208ZM0.901993 36.9069C0.737963 36.9069 0.597365 36.86 0.456767 36.7663C0.152139 36.532 0.105274 36.0868 0.339603 35.7821L1.83931 33.8841H0.901993C0.503633 33.8841 0.199005 33.556 0.199005 33.1811C0.199005 32.8061 0.503633 32.4781 0.901993 32.4781H1.83931L0.339603 30.58C0.105274 30.2754 0.152139 29.8536 0.456767 29.5958C0.761395 29.3615 1.20662 29.4318 1.44095 29.713L3.62021 32.4781H6.315V29.7833L3.54991 27.6275C3.24529 27.3931 3.19842 26.9479 3.43275 26.6433C3.66708 26.3387 4.1123 26.2918 4.41693 26.5261L6.315 28.0024V27.0651C6.315 26.6902 6.61963 26.3621 7.01799 26.3621C7.39291 26.3621 7.69754 26.6902 7.69754 27.0651V28.0024L9.59561 26.5261C9.90024 26.2918 10.3455 26.3387 10.5798 26.6433C10.8141 26.9479 10.7673 27.3931 10.4626 27.6275L7.69754 29.7833V32.4781H10.4158L12.5716 29.713C12.8059 29.4084 13.2511 29.3615 13.5558 29.5958C13.8604 29.8536 13.9073 30.2754 13.6729 30.58L12.1732 32.4781H13.1105C13.5089 32.4781 13.8135 32.8061 13.8135 33.1811C13.8135 33.556 13.5089 33.8841 13.1105 33.8841H12.1967L13.6729 35.7821C13.9073 36.0868 13.8604 36.5085 13.5558 36.7663C13.4152 36.86 13.2746 36.9069 13.1105 36.9069C12.9231 36.9069 12.7122 36.8132 12.5716 36.6491L10.4158 33.8841H7.69754V36.5788L10.4626 38.7347C10.7673 38.9924 10.8141 39.4142 10.5798 39.7189C10.4392 39.9063 10.2517 40.0001 10.0408 40.0001C9.8768 40.0001 9.73621 39.9532 9.59561 39.836L7.69754 38.3597V39.2971C7.69754 39.672 7.39291 40.0001 7.01799 40.0001C6.61963 40.0001 6.315 39.672 6.315 39.2971V38.3597L4.41693 39.836C4.1123 40.0704 3.66708 40.0235 3.43275 39.7189C3.19842 39.4142 3.24529 38.969 3.54991 38.7347L6.315 36.5788V33.8841H3.62021L1.44095 36.6491C1.30035 36.8132 1.11289 36.9069 0.901993 36.9069Z" fill="#C2DDF2"/>
<path fill-rule="evenodd" clip-rule="evenodd" d="M26.3967 30.3925C25.5765 30.3925 24.8501 29.9238 24.4986 29.1974C24.3112 28.8459 24.4752 28.4241 24.8032 28.2601C25.1547 28.096 25.5765 28.2366 25.7406 28.5881C25.8577 28.8225 26.1155 28.9865 26.3967 28.9865C26.795 28.9865 27.1231 28.6584 27.1231 28.2601C27.1231 27.8617 26.795 27.5571 26.3967 27.5571H18.078C17.7031 27.5571 17.3984 27.229 17.3984 26.8541C17.3984 26.4557 17.7031 26.1511 18.078 26.1511H26.3967C27.5683 26.1511 28.5056 27.0884 28.5056 28.2601C28.5056 29.4317 27.5683 30.3925 26.3967 30.3925ZM22.8114 23.1283H18.078C17.7031 23.1283 17.3984 22.8236 17.3984 22.4253C17.3984 22.0504 17.7031 21.7223 18.078 21.7223H22.8114C23.1864 21.7223 23.5144 22.0504 23.5144 22.4253C23.5144 22.8236 23.1864 23.1283 22.8114 23.1283ZM27.5449 25.3544H18.078C17.7031 25.3544 17.3984 25.0498 17.3984 24.6514C17.3984 24.2765 17.7031 23.9484 18.078 23.9484H27.5449C27.9433 23.9484 28.2713 23.6438 28.2713 23.2454C28.2713 22.8471 27.9433 22.519 27.5449 22.519C27.2637 22.519 27.0059 22.683 26.8888 22.9174C26.7247 23.2689 26.3029 23.4095 25.9515 23.2454C25.6 23.0814 25.4594 22.6596 25.6234 22.3081C25.9749 21.5817 26.7247 21.113 27.5449 21.113C28.7165 21.113 29.6539 22.0738 29.6539 23.2454C29.6539 24.4171 28.7165 25.3544 27.5449 25.3544Z" fill="#E9E0D2"/>
<path fill-rule="evenodd" clip-rule="evenodd" d="M12.6421 14.5753C10.9315 14.5753 9.29119 13.966 8.00238 12.8881C7.18223 13.3802 6.26835 13.6614 5.3076 13.6614C2.49565 13.6614 0.199219 11.365 0.199219 8.52958C0.199219 5.71763 2.49565 3.42121 5.3076 3.42121C5.68252 3.42121 6.03402 3.46807 6.38551 3.53837C7.69775 1.33568 10.041 0 12.6421 0C14.6573 0 16.532 0.820152 17.9145 2.27299C19.0393 1.38254 20.3984 0.913884 21.8278 0.913884C25.249 0.913884 28.0844 3.67897 28.2016 7.10018V7.21734C28.2016 7.59227 27.8969 7.8969 27.4986 7.8969C27.4048 7.8969 27.2877 7.87346 27.1939 7.8266C26.3972 7.45167 25.5302 7.24077 24.6398 7.24077C22.3902 7.24077 20.3515 8.50615 19.3673 10.5214C19.2033 10.826 18.8284 10.99 18.5003 10.8729C18.1254 10.7323 17.727 10.662 17.3053 10.662C15.4306 10.662 13.8372 12.068 13.6263 13.9426C13.5794 14.2941 13.2982 14.5518 12.9467 14.5518C12.853 14.5753 12.7358 14.5753 12.6421 14.5753Z" fill="#348ED3"/>
<path fill-rule="evenodd" clip-rule="evenodd" d="M24.6382 20.41C22.9276 20.41 21.2873 19.8242 19.975 18.7463C19.1783 19.2384 18.2644 19.4961 17.3037 19.4961C14.4917 19.4961 12.1953 17.1997 12.1953 14.3877C12.1953 11.5758 14.4917 9.27936 17.3037 9.27936C17.6786 9.27936 18.0301 9.30279 18.3816 9.39653C19.6938 7.19383 22.0371 5.85815 24.6382 5.85815C26.6534 5.85815 28.5281 6.67831 29.9106 8.10772C31.0119 7.2407 32.3945 6.77204 33.8239 6.77204C37.3388 6.77204 40.1977 9.63086 40.1977 13.1458C40.1977 15.3251 39.0963 17.3169 37.2451 18.5119C36.917 18.6994 36.4953 18.6057 36.2844 18.301C36.2375 18.2073 36.1906 18.1136 36.1906 18.0433H31.8555C31.879 18.1839 31.8555 18.3245 31.7852 18.4651C31.5978 18.8166 31.176 18.9337 30.8479 18.7697C30.5199 18.5822 30.1918 18.3948 29.9106 18.1604C28.5281 19.5898 26.6534 20.41 24.6382 20.41Z" fill="#1D81CE"/>
<path fill-rule="evenodd" clip-rule="evenodd" d="M34.0144 39.9999C30.6166 39.9999 27.8516 37.2349 27.8516 33.8137C27.8516 31.7984 28.8357 29.9238 30.4761 28.7756V16.9888C30.4761 15.0439 32.0695 13.4504 34.0144 13.4504C35.9828 13.4504 37.5762 15.0439 37.5762 16.9888V28.7756C39.2165 29.9238 40.2007 31.7984 40.2007 33.8137C40.2007 37.2349 37.4356 39.9999 34.0144 39.9999Z" fill="#CCCCCC"/>
<path fill-rule="evenodd" clip-rule="evenodd" d="M34.0146 39.2034C36.9906 39.2034 39.4041 36.7898 39.4041 33.8138C39.4041 32.0563 38.5606 30.4395 37.1312 29.4084L36.8031 29.1741V16.989C36.8031 15.4658 35.5611 14.2239 34.0146 14.2239C32.4914 14.2239 31.2495 15.4658 31.2495 16.989V29.1741L30.9214 29.4084C29.4686 30.4395 28.6484 32.0563 28.6484 33.8138C28.6484 36.7898 31.062 39.2034 34.0146 39.2034Z" fill="#E6E6E6"/>
<path fill-rule="evenodd" clip-rule="evenodd" d="M34.011 37.3755C32.0661 37.3755 30.4727 35.782 30.4727 33.8137C30.4727 32.1031 31.6912 30.6736 33.3315 30.3456V26.7135C33.3315 26.3386 33.6361 26.0105 34.011 26.0105C34.4094 26.0105 34.714 26.3386 34.714 26.7135V30.3456C36.3543 30.6736 37.5728 32.1031 37.5728 33.8137C37.5728 35.782 35.9794 37.3755 34.011 37.3755Z" fill="#FF3E1A"/>
</g>
<defs>
<clipPath id="clip0_1677_111924">
<rect width="40" height="40" fill="white" transform="translate(0.199219)"/>
</clipPath>
</defs>
</svg>
