<svg width="57" height="57" viewBox="0 0 57 57" fill="none" xmlns="http://www.w3.org/2000/svg">
<g clip-path="url(#clip0_2246_53333)">
<path d="M28.5 0C12.7467 0 0 12.7479 0 28.5C0 44.2533 12.7479 57 28.5 57C44.2533 57 57 44.2522 57 28.5C57 12.7467 44.2522 0 28.5 0ZM28.5 52.5469C15.2082 52.5469 4.45312 41.7909 4.45312 28.5C4.45312 15.2082 15.2091 4.45312 28.5 4.45312C41.7918 4.45312 52.5469 15.2091 52.5469 28.5C52.5469 41.7918 41.7909 52.5469 28.5 52.5469Z" fill="#F8BB86"/>
<path d="M28.5 14.3477C27.2703 14.3477 26.2734 15.3445 26.2734 16.5742V30.9125C26.2734 32.1422 27.2703 33.1391 28.5 33.1391C29.7297 33.1391 30.7266 32.1422 30.7266 30.9125V16.5742C30.7266 15.3445 29.7297 14.3477 28.5 14.3477Z" fill="#F8BB86"/>
<path d="M28.498 41.8772C30.1581 41.8772 31.5039 40.5314 31.5039 38.8713C31.5039 37.2112 30.1581 35.8655 28.498 35.8655C26.838 35.8655 25.4922 37.2112 25.4922 38.8713C25.4922 40.5314 26.838 41.8772 28.498 41.8772Z" fill="#F8BB86"/>
</g>
<defs>
<clipPath id="clip0_2246_53333">
<rect width="57" height="57" fill="white"/>
</clipPath>
</defs>
</svg>
