<svg width="15" height="16" viewBox="0 0 15 16" fill="none" xmlns="http://www.w3.org/2000/svg">
<g clip-path="url(#clip0_1677_112043)">
<path d="M7.5 0.5C3.36469 0.5 0 3.86469 0 8C0 12.1353 3.36469 15.5 7.5 15.5C11.6353 15.5 15 12.1353 15 8C15 3.86469 11.6353 0.5 7.5 0.5ZM12.81 4.15906C12.0019 4.47969 11.1713 4.73375 10.3191 4.90062C9.95719 3.70906 9.3825 2.56813 8.59313 1.53594C10.3219 1.82844 11.82 2.795 12.81 4.15906ZM9.6225 10.0438C8.21437 9.85063 6.78469 9.85063 5.37656 10.0438C5.08781 8.69938 5.08687 7.30813 5.37469 5.96281C6.07406 6.05844 6.78094 6.125 7.5 6.125C8.21906 6.125 8.925 6.05844 9.62437 5.96281C9.91219 7.30813 9.91125 8.69938 9.6225 10.0438ZM9.37969 5.04594C8.13188 5.20719 6.86719 5.20719 5.61937 5.04594C6.00375 3.84031 6.63188 2.6975 7.5 1.685C8.36812 2.6975 8.99531 3.84031 9.37969 5.04594ZM6.405 1.53594C5.61562 2.56813 5.04187 3.70906 4.68 4.90062C3.82875 4.73375 2.99813 4.47969 2.19 4.15906C3.17906 2.795 4.67719 1.82844 6.405 1.53594ZM0.9375 8C0.9375 6.90688 1.21031 5.8775 1.68469 4.97C2.58094 5.33844 3.50063 5.62812 4.44656 5.81844C4.14563 7.25937 4.14563 8.74719 4.4475 10.1891C3.5025 10.3775 2.57906 10.6653 1.68469 11.0328C1.21031 10.1234 0.9375 9.09406 0.9375 8ZM2.19 11.8409C2.99813 11.5203 3.82875 11.2662 4.68 11.0994C5.04187 12.2909 5.61656 13.4319 6.40594 14.4641C4.67719 14.1716 3.17906 13.205 2.19 11.8409ZM5.62031 10.9541C6.86719 10.7928 8.13188 10.7928 9.37969 10.9541C8.99531 12.1597 8.36719 13.3025 7.5 14.315C6.63188 13.3025 6.00469 12.1597 5.62031 10.9541ZM8.59313 14.4641C9.3825 13.4319 9.95719 12.2909 10.3191 11.0994C11.1703 11.2662 12.0019 11.5212 12.81 11.8409C11.82 13.205 10.3219 14.1716 8.59313 14.4641ZM10.5516 10.1872C10.8534 8.74625 10.8544 7.25844 10.5525 5.8175C11.4984 5.62719 12.4191 5.33844 13.3153 4.96906C13.7897 5.8775 14.0625 6.90688 14.0625 8C14.0625 9.09406 13.7897 10.1234 13.3153 11.0309C12.4209 10.6644 11.4975 10.3766 10.5516 10.1872Z" fill="black"/>
</g>
<defs>
<clipPath id="clip0_1677_112043">
<rect width="15" height="15" fill="white" transform="translate(0 0.5)"/>
</clipPath>
</defs>
</svg>
