<svg width="15" height="16" viewBox="0 0 15 16" fill="none" xmlns="http://www.w3.org/2000/svg">
<g clip-path="url(#clip0_1677_112230)">
<path d="M14.4298 9.12206C14.1192 9.33592 13.7852 9.38866 13.4102 9.37108C13.4073 10.915 13.422 12.4267 13.4015 13.9648C13.3868 14.7851 12.6866 15.4736 11.8663 15.4883C11.046 15.5029 10.2227 15.4941 9.39951 15.4912C9.13583 15.4912 8.96005 15.3008 8.96005 15.0195C8.95712 14.3252 8.96005 13.6308 8.95712 12.9365C8.95712 12.4795 8.95712 12.0195 8.95712 11.5625C8.95419 11.0908 8.6583 10.789 8.18076 10.7832C7.73251 10.7773 7.28427 10.7773 6.83603 10.7832C6.37021 10.789 6.07138 11.0937 6.07138 11.5596C6.06845 12.6933 6.06845 13.8242 6.06845 14.958C6.06845 15.3359 5.91025 15.4941 5.52939 15.4941C4.78525 15.4941 4.04111 15.4941 3.29697 15.4941C2.31552 15.4912 1.61826 14.8056 1.6124 13.8213C1.60654 12.3389 1.60947 10.8535 1.60947 9.37108C0.250092 9.49998 -0.540924 7.97069 0.431732 6.98338C2.4415 4.97362 4.45126 2.96385 6.46396 0.957016C6.58994 0.82518 6.73642 0.716782 6.89755 0.628891C7.3663 0.394516 8.09579 0.467758 8.54111 0.92479C9.66904 2.08202 10.8204 3.21581 11.963 4.35838C12.839 5.23729 13.7091 6.12206 14.5997 6.98924C15.1856 7.56053 15.13 8.65623 14.4298 9.12206Z" fill="url(#paint0_linear_1677_112230)"/>
</g>
<defs>
<linearGradient id="paint0_linear_1677_112230" x1="7.50063" y1="0.479331" x2="7.50063" y2="15.3314" gradientUnits="userSpaceOnUse">
<stop stop-color="#D70F0F"/>
<stop offset="1" stop-color="#F67518"/>
</linearGradient>
<clipPath id="clip0_1677_112230">
<rect width="15" height="15" fill="white" transform="translate(0 0.5)"/>
</clipPath>
</defs>
</svg>
