<svg width="41" height="40" viewBox="0 0 41 40" fill="none" xmlns="http://www.w3.org/2000/svg">
<g clip-path="url(#clip0_1677_111813)">
<path d="M20.8984 39.0244C31.9441 39.0244 40.8984 30.2885 40.8984 19.5122C40.8984 8.73591 31.9441 0 20.8984 0C9.85274 0 0.898438 8.73591 0.898438 19.5122C0.898438 30.2885 9.85274 39.0244 20.8984 39.0244Z" fill="#BAC8D9"/>
<path d="M29.3505 23.918C28.9882 23.918 28.6933 23.6579 28.6933 23.3381V13.8112C28.6933 13.4915 28.9882 13.2313 29.3505 13.2313H32.6727V2.13634C32.6727 0.956498 31.5886 0 30.2512 0H10.2339C8.89654 0 7.8125 0.956498 7.8125 2.13634V7.29576H13.7172C14.0795 7.29576 14.3745 7.55589 14.3745 7.87566V14.5859C14.3745 14.9057 14.0795 15.1658 13.7172 15.1658H11.2697C11.0691 15.1658 10.8822 15.261 10.7818 15.4143L10.077 16.4913C10.0431 16.5431 9.98226 16.5741 9.91447 16.5741C9.84668 16.5741 9.78583 16.5431 9.75194 16.4913L9.04715 15.4143C8.94677 15.261 8.75973 15.1658 8.55926 15.1658H7.81269V19.065H11.1275C11.4899 19.065 11.7848 19.3251 11.7848 19.6449V27.9235C11.7848 28.2433 11.4899 28.5034 11.1275 28.5034H7.81269V36.8881C7.81269 38.068 8.89682 39.0244 10.2341 39.0244H30.2514C31.5887 39.0244 32.6728 38.0679 32.6728 36.8881V23.918H29.3505ZM28.1046 11.935H25.3729C25.1723 11.935 24.9854 12.0302 24.885 12.1835L24.057 13.4488C24.0323 13.4865 23.9882 13.509 23.9388 13.509C23.8894 13.509 23.8453 13.4865 23.8206 13.4487L22.9927 12.1835C22.8923 12.0301 22.7053 11.9349 22.5048 11.9349H19.7731C19.4107 11.9349 19.1158 11.6748 19.1158 11.355V4.00435C19.1158 3.68458 19.4107 3.42446 19.7731 3.42446H28.1046C28.467 3.42446 28.7619 3.68458 28.7619 4.00435V11.355C28.7619 11.6748 28.4671 11.935 28.1046 11.935Z" fill="#596CA9"/>
<path d="M12.7308 36.888H11.041C10.5953 36.888 10.2339 36.5691 10.2339 36.1759V28.5034H7.8125V36.888C7.8125 38.0679 8.89663 39.0243 10.2339 39.0243H15.1523C13.8149 39.0244 12.7308 38.0679 12.7308 36.888Z" fill="#465A94"/>
<path d="M9.91428 16.5741C9.8464 16.5741 9.78565 16.5431 9.75175 16.4912L9.04696 15.4143C8.94658 15.261 8.75954 15.1658 8.55907 15.1658H7.8125V19.065H10.2339V16.2513L10.0769 16.4912C10.0429 16.5431 9.98217 16.5741 9.91428 16.5741Z" fill="#465A94"/>
<path d="M7.8125 2.13634V7.29576H10.2339V2.84853C10.2339 2.45528 10.5953 2.13642 11.041 2.13642H12.7309C12.7309 0.956498 13.815 0 15.1523 0H10.2339C8.89663 0 7.8125 0.956498 7.8125 2.13634Z" fill="#465A94"/>
<path d="M29.351 23.9181C28.9886 23.9181 28.6937 23.6579 28.6937 23.3382V13.8113C28.6937 13.4915 28.9886 13.2314 29.351 13.2314H30.2516V2.84859C30.2516 2.45533 29.8902 2.13647 29.4445 2.13647H26.2984C25.975 2.13647 25.6828 2.3068 25.556 2.56916L25.3506 2.99389C25.2718 3.15676 25.1612 3.30182 25.0268 3.42451H28.1051C28.4674 3.42451 28.7624 3.68463 28.7624 4.0044V11.3551C28.7624 11.6749 28.4674 11.935 28.1051 11.935H25.3733C25.1728 11.935 24.9858 12.0302 24.8855 12.1835L24.0575 13.4488C24.0328 13.4865 23.9886 13.509 23.9393 13.509C23.8899 13.509 23.8457 13.4865 23.821 13.4487L22.9932 12.1834C22.8928 12.0301 22.7057 11.9349 22.5053 11.9349H19.7735C19.4112 11.9349 19.1163 11.6748 19.1163 11.355V4.0044C19.1163 3.9542 19.1242 3.90582 19.1379 3.85935H16.6203C15.9735 3.85935 15.3892 3.51878 15.1354 2.99389L14.9301 2.56916C14.8032 2.30672 14.511 2.13647 14.1876 2.13647H11.0415C10.5958 2.13647 10.2344 2.45533 10.2344 2.84859V7.2959H13.7176C14.0799 7.2959 14.3748 7.55602 14.3748 7.87579V14.586C14.3748 14.9058 14.0799 15.1659 13.7176 15.1659H11.2701C11.0695 15.1659 10.8825 15.2611 10.7822 15.4144L10.2345 16.2514V19.0651H11.1279C11.4902 19.0651 11.7852 19.3253 11.7852 19.645V27.9236C11.7852 28.2434 11.4902 28.5035 11.1279 28.5035H10.2345V36.176C10.2345 36.5693 10.5959 36.8881 11.0416 36.8881H29.4446C29.8903 36.8881 30.2517 36.5692 30.2517 36.176V23.9181H29.351Z" fill="white"/>
<path d="M13.1834 36.1758V15.1658H11.27C11.0694 15.1658 10.8825 15.261 10.7821 15.4143L10.2344 16.2513V19.065H11.1278C11.4901 19.065 11.7851 19.3251 11.7851 19.6449V27.9235C11.7851 28.2433 11.4901 28.5034 11.1278 28.5034H10.2344V36.1758C10.2344 36.5692 10.5958 36.888 11.0415 36.888H13.9906C13.5447 36.888 13.1834 36.5692 13.1834 36.1758Z" fill="#F5F8F9"/>
<path d="M13.1835 7.2959V2.84859C13.1835 2.45533 13.5449 2.13647 13.9906 2.13647H11.0415C10.5958 2.13647 10.2344 2.45533 10.2344 2.84859V7.2959H13.1835Z" fill="#F5F8F9"/>
<path d="M13.7162 7.21313H6.11055C5.69571 7.21313 5.35938 7.50988 5.35938 7.87587V14.5861C5.35938 14.9521 5.69571 15.2488 6.11055 15.2488H8.55806C8.72576 15.2488 8.88078 15.3278 8.96463 15.4559L9.66933 16.5329C9.77778 16.6986 10.0489 16.6986 10.1572 16.5329L10.8619 15.4559C10.9458 15.3278 11.1008 15.2488 11.2685 15.2488H13.716C14.1308 15.2488 14.4672 14.9521 14.4672 14.5861V7.87587C14.4674 7.50979 14.131 7.21313 13.7162 7.21313Z" fill="#FD4755"/>
<path d="M7.28388 14.5861V7.87587C7.28388 7.50988 7.62022 7.21313 8.03506 7.21313H6.11055C5.69571 7.21313 5.35938 7.50988 5.35938 7.87587V14.5861C5.35938 14.9521 5.69571 15.2488 6.11055 15.2488H8.03506C7.62022 15.2488 7.28388 14.9521 7.28388 14.5861Z" fill="#FB2B3A"/>
<path d="M23.3527 2.8901C23.7416 2.8901 24.0569 2.61192 24.0569 2.26878C24.0569 1.92563 23.7416 1.64746 23.3527 1.64746C22.9637 1.64746 22.6484 1.92563 22.6484 2.26878C22.6484 2.61192 22.9637 2.8901 23.3527 2.8901Z" fill="#9FACED"/>
<path d="M20.9215 2.8901H17.1261C16.7371 2.8901 16.4219 2.61191 16.4219 2.26878C16.4219 1.92565 16.7371 1.64746 17.1261 1.64746H20.9215C21.3105 1.64746 21.6257 1.92565 21.6257 2.26878C21.6257 2.61191 21.3105 2.8901 20.9215 2.8901Z" fill="#9FACED"/>
<path d="M24.1895 34.0542H16.2936C14.5847 34.0542 13.1992 32.832 13.1992 31.3242C13.1992 29.8165 14.5846 28.5942 16.2936 28.5942H24.1895C25.8984 28.5942 27.2837 29.8165 27.2837 31.3242C27.2837 32.8319 25.8984 34.0542 24.1895 34.0542Z" fill="#26A6FE"/>
<path d="M17.049 31.3238C17.049 29.8161 18.4343 28.5938 20.1434 28.5938H16.2936C14.5847 28.5938 13.1992 29.816 13.1992 31.3238C13.1992 32.8316 14.5846 34.0539 16.2936 34.0539H20.1434C18.4343 34.0539 17.049 32.8316 17.049 31.3238Z" fill="#0593FC"/>
<path d="M23.974 31.945H16.505C16.116 31.945 15.8008 31.6668 15.8008 31.3237C15.8008 30.9806 16.116 30.7024 16.505 30.7024H23.974C24.363 30.7024 24.6782 30.9806 24.6782 31.3237C24.6782 31.6668 24.363 31.945 23.974 31.945Z" fill="white"/>
<path d="M28.1023 3.34155H19.7707C19.3559 3.34155 19.0195 3.63829 19.0195 4.00429V11.355C19.0195 11.721 19.3559 12.0177 19.7707 12.0177H22.5024C22.6701 12.0177 22.8252 12.0967 22.909 12.2248L23.737 13.4901C23.8256 13.6256 24.0473 13.6256 24.1361 13.4901L24.964 12.2248C25.0479 12.0967 25.2029 12.0177 25.3706 12.0177H28.1023C28.5172 12.0177 28.8535 11.721 28.8535 11.355V4.00429C28.8534 3.63829 28.5172 3.34155 28.1023 3.34155Z" fill="#FED402"/>
<path d="M21.4861 11.3551V4.00429C21.4861 3.63829 21.8224 3.34155 22.2373 3.34155H19.7707C19.3559 3.34155 19.0195 3.63829 19.0195 4.00429V11.355C19.0195 11.721 19.3559 12.0177 19.7707 12.0177H22.2373C21.8224 12.0178 21.4861 11.7211 21.4861 11.3551Z" fill="#FAC600"/>
<path d="M24.2703 5.24181L24.9762 6.50375C25.0221 6.58576 25.1107 6.64259 25.2133 6.65576L26.7917 6.85815C27.05 6.89128 27.1531 7.17129 26.9662 7.33209L25.8241 8.31435C25.7499 8.37822 25.716 8.47018 25.7335 8.56031L26.0031 9.94726C26.0473 10.1742 25.7772 10.3473 25.5462 10.2402L24.1344 9.58532C24.0427 9.54274 23.9331 9.54274 23.8414 9.58532L22.4295 10.2402C22.1984 10.3474 21.9285 10.1742 21.9726 9.94726L22.2423 8.56031C22.2599 8.47018 22.226 8.37822 22.1517 8.31435L21.0095 7.33209C20.8226 7.17137 20.9258 6.89128 21.1841 6.85815L22.7625 6.65576C22.865 6.64259 22.9537 6.58576 22.9996 6.50375L23.7055 5.24181C23.821 5.03528 24.1548 5.03528 24.2703 5.24181Z" fill="white"/>
<path d="M24.2703 5.24181L24.9762 6.50375C25.0221 6.58576 25.1107 6.64259 25.2133 6.65576L26.7917 6.85815C27.05 6.89128 27.1531 7.17129 26.9662 7.33209L25.8241 8.31435C25.7499 8.37822 25.716 8.47018 25.7335 8.56031L26.0031 9.94726C26.0473 10.1742 25.7772 10.3473 25.5462 10.2402L24.1344 9.58532C24.0427 9.54274 23.9331 9.54274 23.8414 9.58532L22.4295 10.2402C22.1984 10.3474 21.9285 10.1742 21.9726 9.94726L22.2423 8.56031C22.2599 8.47018 22.226 8.37822 22.1517 8.31435L21.0095 7.33209C20.8226 7.17137 20.9258 6.89128 21.1841 6.85815L22.7625 6.65576C22.865 6.64259 22.9537 6.58576 22.9996 6.50375L23.7055 5.24181C23.821 5.03528 24.1548 5.03528 24.2703 5.24181Z" fill="white"/>
<path d="M23.3643 9.6707L23.634 8.28376C23.6515 8.19362 23.6176 8.10167 23.5434 8.0378L22.4012 7.05554C22.2858 6.95629 22.2812 6.81181 22.3551 6.70776L21.184 6.85787C20.9257 6.89101 20.8226 7.17102 21.0095 7.33182L22.1516 8.31408C22.2258 8.37795 22.2597 8.4699 22.2422 8.56004L21.9726 9.94698C21.9284 10.174 22.1985 10.347 22.4295 10.2399L23.3744 9.80168C23.36 9.7615 23.3552 9.71734 23.3643 9.6707Z" fill="#F5F8F9"/>
<path d="M26.1564 17.0713H14.3254C13.9106 17.0713 13.5742 17.368 13.5742 17.734V24.4443C13.5742 24.8103 13.9106 25.107 14.3254 25.107H18.2888C18.4565 25.107 18.6115 25.1859 18.6953 25.3141L19.9969 27.3032C20.1054 27.4688 20.3764 27.4688 20.4848 27.3032L21.7864 25.3141C21.8703 25.1859 22.0253 25.107 22.193 25.107H26.1564C26.5712 25.107 26.9076 24.8103 26.9076 24.4443V17.734C26.9076 17.3679 26.5712 17.0713 26.1564 17.0713Z" fill="#97D729"/>
<path d="M15.4522 24.4443V17.734C15.4522 17.368 15.7885 17.0713 16.2033 17.0713H14.3254C13.9106 17.0713 13.5742 17.368 13.5742 17.734V24.4443C13.5742 24.8103 13.9106 25.107 14.3254 25.107H16.2033C15.7885 25.107 15.4522 24.8103 15.4522 24.4443Z" fill="#8BC727"/>
<path d="M22.1425 18.019C21.632 18.4087 20.9674 18.6452 20.2409 18.6452C19.5144 18.6452 18.8498 18.4087 18.3393 18.019C17.0086 18.4647 16.0625 19.5994 16.0625 20.9297V22.3732C16.0625 22.6019 16.2727 22.7874 16.532 22.7874H23.9498C24.2091 22.7874 24.4193 22.6019 24.4193 22.3732V20.9297C24.4193 19.5994 23.4731 18.4647 22.1425 18.019Z" fill="#26A6FE"/>
<path d="M19.3016 18.5073C18.9446 18.3996 18.6188 18.2324 18.3393 18.019C17.0086 18.4647 16.0625 19.5994 16.0625 20.9297V22.3732C16.0625 22.6019 16.2727 22.7874 16.532 22.7874H18.4568C18.1975 22.7874 17.9873 22.6019 17.9873 22.3732V20.9297C17.9873 19.9506 18.5002 19.0778 19.3016 18.5073Z" fill="#0593FC"/>
<path d="M20.2391 18.7282C21.8985 18.7282 23.2438 17.5413 23.2438 16.0772C23.2438 14.6131 21.8985 13.4263 20.2391 13.4263C18.5796 13.4263 17.2344 14.6131 17.2344 16.0772C17.2344 17.5413 18.5796 18.7282 20.2391 18.7282Z" fill="#0593FC"/>
<path d="M19.4879 16.0772C19.4879 14.9648 20.2649 14.013 21.3658 13.6197C21.0178 13.4954 20.6377 13.4263 20.2391 13.4263C18.5796 13.4263 17.2344 14.6132 17.2344 16.0772C17.2344 17.5413 18.5796 18.7282 20.2391 18.7282C20.6377 18.7282 21.0178 18.6591 21.3658 18.5347C20.2649 18.1414 19.4879 17.1896 19.4879 16.0772Z" fill="#0182FC"/>
<path d="M11.1259 28.5863H1.64961C1.23478 28.5863 0.898438 28.2895 0.898438 27.9235V19.6449C0.898438 19.2789 1.23478 18.9822 1.64961 18.9822H11.1259C11.5408 18.9822 11.8771 19.2789 11.8771 19.6449V27.9235C11.8771 28.2895 11.5408 28.5863 11.1259 28.5863Z" fill="#FD8087"/>
<path d="M3.81647 27.9235V19.6449C3.81647 19.2789 4.1528 18.9822 4.56764 18.9822H1.64961C1.23478 18.9822 0.898438 19.2789 0.898438 19.6449V27.9235C0.898438 28.2895 1.23478 28.5863 1.64961 28.5863H4.56764C4.1528 28.5863 3.81647 28.2895 3.81647 27.9235Z" fill="#FE646F"/>
<path d="M8.43289 22.1469H4.34876C3.95974 22.1469 3.64453 21.8687 3.64453 21.5256C3.64453 21.1825 3.95974 20.9043 4.34876 20.9043H8.43289C8.8219 20.9043 9.13712 21.1825 9.13712 21.5256C9.13712 21.8687 8.8219 22.1469 8.43289 22.1469Z" fill="white"/>
<path d="M9.31186 24.3017H3.46594C3.07693 24.3017 2.76172 24.0235 2.76172 23.6804C2.76172 23.3373 3.07693 23.0591 3.46594 23.0591H9.31186C9.70087 23.0591 10.0161 23.3373 10.0161 23.6804C10.0161 24.0235 9.70078 24.3017 9.31186 24.3017Z" fill="white"/>
<path d="M9.31186 26.4567H3.46594C3.07693 26.4567 2.76172 26.1786 2.76172 25.8354C2.76172 25.4923 3.07693 25.2141 3.46594 25.2141H9.31186C9.70087 25.2141 10.0161 25.4923 10.0161 25.8354C10.0161 26.1786 9.70078 26.4567 9.31186 26.4567Z" fill="white"/>
<path d="M9.91102 13.4774C9.85937 13.4774 9.8098 13.4594 9.77327 13.4271L7.29891 11.244C7.01543 10.994 6.85938 10.6615 6.85938 10.3079C6.85938 9.95422 7.01553 9.62177 7.29891 9.37175C7.58229 9.12165 7.95909 8.98397 8.35994 8.98397C8.76069 8.98397 9.13759 9.12174 9.42097 9.37175L9.91102 9.80403L10.4011 9.37167C10.6844 9.12165 11.0613 8.98389 11.4621 8.98389C11.8629 8.98389 12.2398 9.12165 12.5232 9.37167C12.8066 9.62169 12.9628 9.95414 12.9628 10.3078C12.9628 10.6614 12.8066 10.9939 12.5232 11.2439L10.0489 13.427C10.0122 13.4594 9.96266 13.4774 9.91102 13.4774Z" fill="white"/>
<path d="M8.75045 10.6125C8.46707 10.3625 8.31092 10.03 8.31092 9.67636C8.31092 9.4314 8.38745 9.19728 8.52773 8.993C8.47233 8.98761 8.41646 8.98413 8.35994 8.98413C7.95909 8.98413 7.58229 9.1219 7.29891 9.37192C7.01553 9.62193 6.85938 9.95438 6.85938 10.308C6.85938 10.6617 7.01553 10.9941 7.29891 11.2442L9.77327 13.4272C9.8098 13.4594 9.85937 13.4776 9.91102 13.4776C9.96266 13.4776 10.0122 13.4595 10.0488 13.4272L10.9949 12.5925L8.75045 10.6125Z" fill="#F5F8F9"/>
<path d="M40.147 24.0008H29.3488C28.934 24.0008 28.5977 23.704 28.5977 23.3381V13.8112C28.5977 13.4452 28.934 13.1484 29.3488 13.1484H40.147C40.5618 13.1484 40.8981 13.4452 40.8981 13.8112V23.3381C40.8981 23.704 40.5618 24.0008 40.147 24.0008Z" fill="#26A6FE"/>
<path d="M31.9779 23.3381V13.8112C31.9779 13.4452 32.3143 13.1484 32.7291 13.1484H29.3488C28.934 13.1484 28.5977 13.4452 28.5977 13.8112V23.3381C28.5977 23.704 28.934 24.0008 29.3488 24.0008H32.7291C32.3143 24.0008 31.9779 23.704 31.9779 23.3381Z" fill="#0593FC"/>
<path d="M32.7508 21.8983L34.2328 20.0695L34.2225 19.9778L32.8273 18.256C32.7507 18.1614 32.5915 18.1614 32.5149 18.256L29.7314 21.691C29.6406 21.8031 29.7314 21.9589 29.8877 21.9589H32.6172L32.7866 21.8983H32.7508Z" fill="#D8ECFE"/>
<path d="M36.1438 17.6068L32.6172 21.9589H39.6094C39.7656 21.9589 39.8564 21.8031 39.7656 21.691L36.4562 17.6068C36.3795 17.5123 36.2204 17.5123 36.1438 17.6068Z" fill="white"/>
<path d="M36.4562 17.6068C36.3795 17.5123 36.2204 17.5123 36.1438 17.6068L32.6172 21.9589H34.5593L37.271 18.6124L36.4562 17.6068Z" fill="#F5F8F9"/>
<path d="M31.64 16.9884C32.399 16.9884 33.0144 16.4455 33.0144 15.7758C33.0144 15.1061 32.399 14.5632 31.64 14.5632C30.8809 14.5632 30.2656 15.1061 30.2656 15.7758C30.2656 16.4455 30.8809 16.9884 31.64 16.9884Z" fill="white"/>
<path d="M31.2269 15.7758C31.2269 15.2555 31.5991 14.8131 32.1206 14.641C31.9709 14.5916 31.8094 14.5632 31.64 14.5632C30.8809 14.5632 30.2656 15.1061 30.2656 15.7758C30.2656 16.4455 30.8809 16.9884 31.64 16.9884C31.8094 16.9884 31.9709 16.96 32.1206 16.9106C31.5991 16.7384 31.2269 16.296 31.2269 15.7758Z" fill="#F5F8F9"/>
</g>
<defs>
<clipPath id="clip0_1677_111813">
<rect width="40" height="40" fill="white" transform="translate(0.898438)"/>
</clipPath>
</defs>
</svg>
