<svg width="15" height="16" viewBox="0 0 15 16" fill="none" xmlns="http://www.w3.org/2000/svg">
<g clip-path="url(#clip0_1677_112236)">
<path d="M15 8.00021C15 3.85772 11.6421 0.500122 7.50012 0.500122C3.3579 0.500122 0 3.85772 0 8.00021C0 12.1421 3.3579 15.4999 7.50012 15.4999C11.6421 15.4999 15 12.1421 15 8.00021Z" fill="#44A7F5"/>
<path d="M9.53217 11.3702C9.49024 11.3088 9.40979 11.2869 9.34261 11.3187C8.59944 11.6706 7.75596 12.0425 7.59041 12.075C7.58624 12.0713 7.57961 12.0645 7.57094 12.0527C7.54851 12.0223 7.53759 11.9826 7.53759 11.9313C7.53759 11.511 7.85488 10.2321 8.4806 8.13056C9.00818 6.36482 9.06919 5.99922 9.06919 5.87783C9.06919 5.69045 8.99745 5.53213 8.86165 5.41994C8.73265 5.31355 8.5524 5.25964 8.32596 5.25964C7.9493 5.25964 7.51274 5.40264 6.99132 5.69683C6.48605 5.98201 5.92255 6.46504 5.31658 7.13247C5.26914 7.18475 5.26418 7.2629 5.30463 7.32076C5.34515 7.37866 5.42027 7.4007 5.4856 7.37409C5.69835 7.28726 6.76751 6.84929 6.92336 6.7514C7.05097 6.6714 7.16144 6.6308 7.25172 6.6308C7.25495 6.6308 7.25773 6.63092 7.26006 6.6311C7.26115 6.63709 7.26218 6.64622 7.26218 6.65931C7.26218 6.75143 7.24322 6.86047 7.20606 6.98288C6.29498 9.9348 5.85211 11.7444 5.85211 12.5152C5.85211 12.7872 5.92772 13.0062 6.0768 13.1661C6.22871 13.3291 6.43363 13.4118 6.68586 13.4118C6.95465 13.4118 7.2818 13.2995 7.68594 13.0685C8.07703 12.845 8.67393 12.3534 9.51086 11.5654C9.56506 11.5144 9.5741 11.4316 9.53217 11.3702Z" fill="white"/>
<path d="M9.50382 2.81793C9.35492 2.66553 9.1644 2.58826 8.9376 2.58826C8.65523 2.58826 8.40929 2.69984 8.2067 2.91994C8.00735 3.1364 7.90625 3.40202 7.90625 3.70939C7.90625 3.95225 7.98071 4.1535 8.12755 4.30754C8.27635 4.4639 8.46431 4.54317 8.68612 4.54317C8.95694 4.54317 9.20155 4.42532 9.41312 4.1929C9.621 3.96455 9.72642 3.69609 9.72642 3.39498C9.72645 3.16358 9.65156 2.96946 9.50382 2.81793Z" fill="white"/>
</g>
<defs>
<clipPath id="clip0_1677_112236">
<rect width="15" height="15" fill="white" transform="translate(0 0.5)"/>
</clipPath>
</defs>
</svg>
