<svg xmlns="http://www.w3.org/2000/svg" viewBox="0 0 576 512"><!--!Font Awesome Free 6.5.1 by @fontawesome - https://fontawesome.com License - https://fontawesome.com/license/free Copyright 2024 Fonticons, Inc.--><path d="M560 32c-2 0-4 .4-6 1.2L384 96H384L212 35.3A64.3 64.3 0 0 0 191.8 32c-6.7 0-13.4 1.1-19.8 3.1L20.1 88A32 32 0 0 0 0 117.7v346.3C0 473.2 7.5 480 16 480c2 0 4-.4 6-1.2L192 416l172 60.7a64 64 0 0 0 40.1 .2l151.8-52.8A32 32 0 0 0 576 394.3V48c0-9.2-7.5-16-16-16zM224 90.4l128 45.2v286l-128-45.2V90.4zM48 418.1V129.1l128-44.5v286.2l-.6 .2L48 418.1zm480-35.1l-128 44.5V141.3l.6-.2L528 94v289z"/></svg>