<svg width="15" height="16" viewBox="0 0 15 16" fill="none" xmlns="http://www.w3.org/2000/svg">
<path d="M14.1035 14.5127C13.9717 14.5654 13.831 14.5918 13.6816 14.5918H2.19727C0.984375 14.5918 0 13.6074 0 12.3945V1.84766C0 1.60153 0.19333 1.4082 0.439453 1.4082H11.9238C12.17 1.4082 12.3633 1.60153 12.3633 1.84766V4.04492L13.2422 12.3945L14.1035 14.5127Z" fill="#F0F7FF"/>
<path d="M6.17969 14.5918H13.6797C13.829 14.5918 13.9698 14.5654 14.1015 14.5127L13.2402 12.3945L12.3613 4.04492V1.84766C12.3613 1.60153 12.168 1.4082 11.9219 1.4082H6.17969V14.5918Z" fill="#DFE7F4"/>
<path d="M14.5605 4.04492C14.8032 4.04492 15 4.24168 15 4.48437V13.2734C15 13.8535 14.6221 14.3457 14.1035 14.5127C13.9259 14.5838 13.7318 14.607 13.5225 14.5822C12.8507 14.5026 12.3633 13.89 12.3633 13.2136V4.04492H14.5605Z" fill="#C7CFE1"/>
<path d="M4.83398 9.31836H2.19727C1.95437 9.31836 1.75781 9.12181 1.75781 8.87891V7.12109C1.75781 6.87819 1.95437 6.68164 2.19727 6.68164H4.83398C5.07688 6.68164 5.27344 6.87819 5.27344 7.12109V8.87891C5.27344 9.12181 5.07688 9.31836 4.83398 9.31836Z" fill="#7ED8F6"/>
<path d="M10.166 5.80273H2.19727C1.95437 5.80273 1.75781 5.60618 1.75781 5.36328V3.60547C1.75781 3.36257 1.95437 3.16602 2.19727 3.16602H10.166C10.4089 3.16602 10.6055 3.36257 10.6055 3.60547V5.36328C10.6055 5.60618 10.4089 5.80273 10.166 5.80273Z" fill="#7ED8F6"/>
<path d="M10.1641 9.31836H6.61914C6.37624 9.31836 6.17969 9.12181 6.17969 8.87891C6.17969 8.63601 6.37624 8.43945 6.61914 8.43945H10.1641C10.407 8.43945 10.6035 8.63601 10.6035 8.87891C10.6035 9.12181 10.407 9.31836 10.1641 9.31836Z" fill="#6AA9FF"/>
<path d="M10.166 11.0762H2.19727C1.95437 11.0762 1.75781 10.8796 1.75781 10.6367C1.75781 10.3938 1.95437 10.1973 2.19727 10.1973H10.166C10.4089 10.1973 10.6055 10.3938 10.6055 10.6367C10.6055 10.8796 10.4089 11.0762 10.166 11.0762Z" fill="#7ED8F6"/>
<path d="M10.166 12.834H2.19727C1.95437 12.834 1.75781 12.6374 1.75781 12.3945C1.75781 12.1516 1.95437 11.9551 2.19727 11.9551H10.166C10.4089 11.9551 10.6055 12.1516 10.6055 12.3945C10.6055 12.6374 10.4089 12.834 10.166 12.834Z" fill="#7ED8F6"/>
<path d="M10.1641 7.56055H6.61914C6.37624 7.56055 6.17969 7.36399 6.17969 7.12109C6.17969 6.87819 6.37624 6.68164 6.61914 6.68164H10.1641C10.407 6.68164 10.6035 6.87819 10.6035 7.12109C10.6035 7.36399 10.407 7.56055 10.1641 7.56055Z" fill="#6AA9FF"/>
<path d="M6.17969 12.834H10.1641C10.407 12.834 10.6035 12.6374 10.6035 12.3945C10.6035 12.1516 10.407 11.9551 10.1641 11.9551H6.17969V12.834Z" fill="#6AA9FF"/>
<path d="M6.17969 11.0762H10.1641C10.407 11.0762 10.6035 10.8796 10.6035 10.6367C10.6035 10.3938 10.407 10.1973 10.1641 10.1973H6.17969V11.0762Z" fill="#6AA9FF"/>
<path d="M6.17969 5.80273H10.1641C10.407 5.80273 10.6035 5.60618 10.6035 5.36328V3.60547C10.6035 3.36257 10.407 3.16602 10.1641 3.16602H6.17969V5.80273Z" fill="#6AA9FF"/>
</svg>
