<svg width="41" height="40" viewBox="0 0 41 40" fill="none" xmlns="http://www.w3.org/2000/svg">
<path d="M20.8008 40C31.8465 40 40.8008 31.0457 40.8008 20C40.8008 8.9543 31.8465 0 20.8008 0C9.75509 0 0.800781 8.9543 0.800781 20C0.800781 31.0457 9.75509 40 20.8008 40Z" fill="#BAC8D9"/>
<path fill-rule="evenodd" clip-rule="evenodd" d="M7.47656 3.91968H34.5246V38.2476H7.47656V3.91968Z" fill="#967654"/>
<path fill-rule="evenodd" clip-rule="evenodd" d="M10.0469 6.29883H31.9502V35.626H10.0469V6.29883Z" fill="#E6E6E6"/>
<path fill-rule="evenodd" clip-rule="evenodd" d="M17.7555 1H24.2435C25.2316 1 26.0402 1.80852 26.0402 2.79664V3.24578H27.6622C27.8818 3.24578 28.0615 3.42547 28.0615 3.64508V6.43992C28.0615 6.65953 27.8818 6.83922 27.6622 6.83922H14.3368C14.1172 6.83922 13.9375 6.65961 13.9375 6.43992V3.64508C13.9375 3.42547 14.1172 3.24578 14.3368 3.24578H15.9588V2.79664C15.9588 1.80852 16.7673 1 17.7555 1Z" fill="#C49A6C"/>
<path fill-rule="evenodd" clip-rule="evenodd" d="M20.569 25.2109C20.569 24.9737 20.7614 24.7813 20.9987 24.7813C21.2359 24.7813 21.4284 24.9737 21.4284 25.2109V26.9354C21.4284 27.1727 21.2359 27.3651 20.9987 27.3651C20.7614 27.3651 20.569 27.1727 20.569 26.9354V25.2109ZM14.4938 21.2159H11.6953C11.458 21.2159 11.2656 21.0234 11.2656 20.7862C11.2656 20.5489 11.458 20.3565 11.6953 20.3565H14.4938V18.1427C14.4938 17.9055 14.6862 17.7131 14.9234 17.7131H17.8112C18.0484 17.7131 18.2409 17.9055 18.2409 18.1427C18.2409 18.38 18.0484 18.5724 17.8112 18.5724H15.3531V20.7863V23H17.8112C18.0484 23 18.2409 23.1924 18.2409 23.4297C18.2409 23.667 18.0484 23.8594 17.8112 23.8594H14.9234C14.6862 23.8594 14.4938 23.667 14.4938 23.4297V21.2159ZM24.1862 13.2854C23.9489 13.2854 23.7565 13.093 23.7565 12.8557C23.7565 12.6184 23.9489 12.426 24.1862 12.426H27.0739C27.3112 12.426 27.5036 12.6184 27.5036 12.8557V18.1427C27.5036 18.3799 27.3112 18.5724 27.0739 18.5724H24.1862C23.9489 18.5724 23.7565 18.3799 23.7565 18.1427C23.7565 17.9054 23.9489 17.713 24.1862 17.713H26.6442V13.2854H24.1862ZM21.4284 16.3614C21.4284 16.5987 21.2359 16.7911 20.9987 16.7911C20.7614 16.7911 20.569 16.5987 20.569 16.3614V14.637C20.569 14.3997 20.7614 14.2073 20.9987 14.2073C21.2359 14.2073 21.4284 14.3997 21.4284 14.637V16.3614ZM20.569 19.924C20.569 19.6867 20.7614 19.4943 20.9987 19.4943C21.2359 19.4943 21.4284 19.6867 21.4284 19.924V21.6484C21.4284 21.8857 21.2359 22.0781 20.9987 22.0781C20.7614 22.0781 20.569 21.8857 20.569 21.6484V19.924ZM27.5036 25.6434H29.7453C29.9826 25.6434 30.175 25.8359 30.175 26.0731C30.175 26.3104 29.9826 26.5028 29.7453 26.5028H27.5036V28.7167C27.5036 28.9539 27.3112 29.1463 27.0739 29.1463H24.1862C23.9489 29.1463 23.7565 28.9539 23.7565 28.7167C23.7565 28.4794 23.9489 28.287 24.1862 28.287H26.6441V26.0731V23.8593H24.1862C23.9489 23.8593 23.7565 23.6669 23.7565 23.4296C23.7565 23.1924 23.9489 22.9999 24.1862 22.9999H27.0739C27.3112 22.9999 27.5036 23.1924 27.5036 23.4296V25.6434Z" fill="#173A54"/>
<path d="M39.2253 27.038C39.753 24.4523 38.0847 21.9284 35.499 21.4007C32.9133 20.873 30.3894 22.5414 29.8617 25.127C29.334 27.7127 31.0024 30.2366 33.588 30.7643C36.1737 31.292 38.6976 29.6237 39.2253 27.038Z" fill="#A8E73D"/>
<path fill-rule="evenodd" clip-rule="evenodd" d="M36.1921 24.4554C36.3598 24.2876 36.6319 24.2876 36.7996 24.4554C36.9674 24.6232 36.9674 24.8953 36.7996 25.063L34.1721 27.6905C34.0043 27.8583 33.7323 27.8583 33.5646 27.6905L32.2508 26.3768C32.0831 26.209 32.0831 25.9369 32.2508 25.7692C32.4186 25.6015 32.6906 25.6015 32.8584 25.7692L33.8683 26.7791L36.1921 24.4554Z" fill="white"/>
<path fill-rule="evenodd" clip-rule="evenodd" d="M9.06595 16.8756C9.42673 17.0225 9.76259 17.2179 10.0655 17.4536C10.2017 17.5596 10.3788 17.5718 10.5281 17.4855L11.6106 16.8606C11.8086 16.7462 12.0635 16.8145 12.1777 17.0125L13.0945 18.6003C13.2088 18.7983 13.1406 19.0532 12.9425 19.1675L11.8606 19.7921C11.7114 19.8783 11.6335 20.0374 11.6569 20.2081C11.7092 20.5903 11.7092 20.9816 11.6569 21.3638C11.6335 21.5345 11.7115 21.6936 11.8606 21.7797L12.9425 22.4043C13.1406 22.5187 13.2088 22.7735 13.0945 22.9716L12.1777 24.5593C12.0634 24.7574 11.8086 24.8257 11.6106 24.7113L10.5281 24.0864C10.3787 24.0001 10.2016 24.0123 10.0654 24.1183C9.76251 24.3541 9.42665 24.5495 9.06587 24.6964C8.90626 24.7614 8.80728 24.9086 8.80728 25.081V26.3298C8.80728 26.5585 8.62072 26.745 8.39205 26.745H6.55869C6.32994 26.745 6.14345 26.5585 6.14345 26.3298V25.081C6.14345 24.9086 6.04447 24.7614 5.88478 24.6964C5.524 24.5495 5.18814 24.3541 4.88525 24.1183C4.74908 24.0124 4.57205 24.0001 4.42259 24.0864L3.34017 24.7114C3.14212 24.8257 2.88728 24.7575 2.77298 24.5594L1.85626 22.9718C1.74189 22.7737 1.81017 22.5189 2.00822 22.4046L3.09009 21.78C3.23931 21.6938 3.3172 21.5347 3.29384 21.364C3.2415 20.9818 3.2415 20.5905 3.29384 20.2083C3.3172 20.0376 3.23923 19.8785 3.09009 19.7924L2.00822 19.1678C1.81017 19.0534 1.74189 18.7986 1.85619 18.6005L2.7729 17.0127C2.88728 16.8146 3.14205 16.7464 3.34017 16.8607L4.42251 17.4857C4.57197 17.5719 4.749 17.5597 4.88517 17.4538C5.18806 17.218 5.52392 17.0226 5.8847 16.8758C6.04439 16.8108 6.14337 16.6636 6.14337 16.4912V15.2424C6.14337 15.0137 6.32994 14.8271 6.55861 14.8271H8.39197C8.62064 14.8271 8.8072 15.0137 8.8072 15.2424V16.4912C8.80728 16.6634 8.90626 16.8106 9.06595 16.8756Z" fill="#173A54"/>
<path d="M8.51817 22.2362C9.32253 21.6604 9.5078 20.5415 8.93199 19.7372C8.35618 18.9328 7.23733 18.7476 6.43298 19.3234C5.62862 19.8992 5.44335 21.018 6.01916 21.8224C6.59497 22.6267 7.71382 22.812 8.51817 22.2362Z" fill="#B9E0FF"/>
<path fill-rule="evenodd" clip-rule="evenodd" d="M17.8125 11.0745H24.1875V14.637H17.8125V11.0745Z" fill="#256187"/>
<path fill-rule="evenodd" clip-rule="evenodd" d="M17.8125 16.3613H24.1875V19.9238H17.8125V16.3613Z" fill="#256187"/>
<path fill-rule="evenodd" clip-rule="evenodd" d="M17.8125 21.6484H24.1875V25.2109H17.8125V21.6484Z" fill="#256187"/>
<path fill-rule="evenodd" clip-rule="evenodd" d="M17.8125 26.9353H24.1875V30.4978H17.8125V26.9353Z" fill="#256187"/>
</svg>
