<svg width="40" height="40" viewBox="0 0 40 40" fill="none" xmlns="http://www.w3.org/2000/svg">
<g clip-path="url(#clip0_1677_111936)">
<path d="M20.0001 1.05542C11.8374 1.05542 4.84773 6.07802 1.95312 13.2014L8.60546 30.0791L28.2211 38.1846C34.8667 35.0852 39.4724 28.3443 39.4724 20.5277C39.4724 9.77344 30.7543 1.05542 20.0001 1.05542Z" fill="#BAC8D9"/>
<path d="M36.9882 23.0298C36.6343 22.6717 36.1876 22.4559 35.7193 22.382C34.4975 22.1893 33.4252 21.4461 32.779 20.3914C31.9585 19.0522 30.6277 17.6341 28.6234 17.4622C27.9255 17.4023 27.2752 17.0996 26.7544 16.631C26.1092 16.0505 25.3797 15.6164 24.6083 15.3271C23.2876 14.8317 22.4147 13.5667 22.4147 12.1561V8.02649C22.4147 6.66234 23.2977 5.44134 24.6051 5.05192C25.2003 4.87471 25.8198 4.61454 26.4034 4.23454C27.0483 3.81459 27.5766 3.29505 28.0021 2.7708C27.5049 2.54642 26.9961 2.34347 26.4778 2.16061L24.2163 3.63314C23.9783 3.78814 23.6919 3.53096 23.8155 3.27527C23.8174 3.27127 23.8194 3.26734 23.8213 3.26334C24.0975 2.68792 24.2473 2.09194 24.3221 1.53771C23.5189 1.35564 22.6968 1.22371 21.8594 1.14429C21.6524 1.41936 21.4609 1.72183 21.3017 2.05364C20.6593 3.39166 20.6978 4.84174 20.7842 5.61556V9.64939C20.5939 9.29348 20.3601 8.93898 20.0712 8.60991C19.2083 7.62741 18.0583 7.09696 17.2868 6.8317C16.8835 6.69302 16.4818 7.04517 16.5672 7.463C16.5698 7.47626 16.5727 7.4896 16.5755 7.5031C16.7587 8.37604 15.8023 9.03787 15.0548 8.55121C14.6651 8.29748 14.1965 8.74192 14.4321 9.14288C14.9188 9.97132 15.6849 10.9869 16.7933 11.7085C18.195 12.6212 19.804 12.8427 20.7842 12.8839V15.0376C19.4702 15.313 18.3007 15.9632 17.4011 16.8532C16.9066 17.3423 16.2626 17.6914 15.5438 17.8163C13.1244 18.2371 11.2308 20.193 10.9053 22.6497C10.8327 22.662 10.7603 22.6753 10.6882 22.6894C10.042 22.8165 9.38971 22.4855 9.13897 21.8766C8.19877 19.5931 7.67986 17.0918 7.67986 14.4691C7.67986 14.4265 7.68001 14.3839 7.68025 14.3414C7.70136 11.0624 3.18755 10.1638 1.95281 13.2016C1.04118 15.4446 0.535608 17.8959 0.527446 20.4644C0.517479 23.5892 1.23628 26.5405 2.52501 29.1572L11.6357 38.1313C14.1136 39.3049 16.8835 39.9718 19.8144 39.9991C22.8203 40.027 25.6705 39.3737 28.2204 38.1842C30.384 37.1748 29.6326 33.93 27.2452 33.9411C27.2142 33.9413 27.1832 33.9413 27.1522 33.9413C26.8465 33.9413 26.5424 33.9343 26.2401 33.9203C25.4265 33.8827 25.4597 32.6662 26.2742 32.6663C29.7226 32.6667 29.4074 32.667 29.5075 32.6619C31.2662 32.5736 32.0054 31.2728 32.4873 30.8826L32.6948 30.6711L36.995 26.2834C37.8818 25.3784 37.8778 23.9299 36.9882 23.0298Z" fill="#199A8E"/>
<path d="M18.6245 9.54396C20.0471 11.1638 20.1502 13.3992 20.1502 13.3992C20.1502 13.3992 17.9469 13.0082 16.5244 11.3883C15.6621 10.4065 15.2845 9.19841 15.121 8.39917C15.0354 7.9811 15.438 7.62739 15.8416 7.7663C16.6131 8.03172 17.7623 8.56209 18.6245 9.54396Z" fill="#FFF5AA"/>
<path d="M20.8728 18.943H20.2205L19.2422 13.3992V5.07056H20.9299L20.8728 7.88181V18.943Z" fill="#A0C83D"/>
<path d="M30.592 27.2603C31.4756 26.297 32.0272 25.0263 32.0595 23.6373C32.1277 20.6974 29.9175 18.2685 27.0884 17.9709C26.4 17.8984 25.7449 17.6208 25.232 17.1558C22.5546 14.7281 18.4114 14.8292 15.8516 17.3688V27.2603H30.592Z" fill="#A55A3C"/>
<path d="M31.3145 25.275C30.3885 25.7434 29.3425 26.0089 28.2339 26.0089C27.6642 26.0089 27.1113 25.9385 26.5825 25.8067C26.0517 25.6744 25.495 25.7319 25.0012 25.9674C24.2537 26.324 23.4159 26.5218 22.5314 26.5169C19.3687 26.4995 16.7884 23.811 16.8962 20.6501C16.9231 19.8584 17.1127 19.1072 17.4327 18.4293C17.89 17.4609 16.6781 16.5659 15.9089 17.311C15.8921 17.3273 15.8754 17.3437 15.8586 17.3601C15.3506 17.8626 14.7053 18.2009 14.0013 18.3233C11.3435 18.7855 9.33297 21.0944 9.31265 23.8654C9.29004 26.9446 11.8713 29.5611 14.9505 29.5783C16.1426 29.585 17.2498 29.2235 18.1656 28.6013C18.9368 28.9029 19.7754 29.0703 20.6535 29.0703C21.7621 29.0703 22.8081 28.8048 23.7341 28.3364C24.6237 28.8459 25.6664 29.1184 26.7773 29.0632C29.0272 28.9516 30.9305 27.4836 31.6976 25.4746C31.5672 25.4126 31.4392 25.3464 31.3145 25.275Z" fill="#783C28"/>
<path d="M30.3436 24.7392L26.7668 27.6908H20.7484C21.512 27.0645 22.0172 26.1351 22.0803 25.0863H18.8569C17.766 25.0863 16.9582 24.1947 16.911 23.1404C16.9094 23.1054 16.9092 23.0707 16.9098 23.0361H10.7817C7.4609 23.0361 4.44559 24.9743 3.06661 27.9952L2.53906 29.151C4.47698 33.0678 7.69304 36.2389 11.643 38.119L13.9976 33.1731H14.3192C14.5024 32.2718 15.388 31.5685 16.3075 31.5685H30.7701L36.9928 25.2486C35.2734 23.3194 32.3367 23.0944 30.3436 24.7392Z" fill="#FFBE82"/>
<path d="M10.6836 28.5481H16.023L15.9652 28.5183H18.4342C19.8429 28.5183 21.0647 27.7207 21.6747 26.553H12.6787C11.5769 26.553 10.6836 27.4462 10.6836 28.5481Z" fill="#FF965A"/>
<path d="M21.7904 25.5186H18.9473C17.5763 25.5186 16.4648 24.4072 16.4648 23.0361H21.7904C21.954 23.0361 22.0867 23.1688 22.0867 23.3325V25.2223C22.0867 25.3859 21.954 25.5186 21.7904 25.5186Z" fill="#FFCEA1"/>
<path d="M30.9463 31.3896L31.1537 31.178H15.9834C14.8815 31.178 13.9883 32.0712 13.9883 33.1731H27.7992C28.6941 33.1731 29.5513 32.813 30.1777 32.1739L30.9463 31.3896Z" fill="#FF965A"/>
<path d="M22.2802 3.77027C21.3471 5.71376 19.3309 6.68441 19.3309 6.68441C19.3309 6.68441 18.8275 4.50406 19.7605 2.56065C20.3262 1.38258 21.2897 0.561983 21.961 0.0983193C22.3121 -0.144264 22.7952 0.0877244 22.8256 0.513403C22.8834 1.32709 22.8457 2.5922 22.2802 3.77027Z" fill="#FFF5AA"/>
<path d="M18.6168 12.3822L12.2031 8.20605C12.2031 8.20605 13.0557 10.7866 15.2499 12.2153C15.7165 12.5192 16.2063 12.7465 16.6881 12.9159C18.2283 13.4577 19.2409 14.9362 19.2409 16.569V18.9429H20.149L20.1483 15.2064C20.1481 14.0666 19.5719 13.0041 18.6168 12.3822Z" fill="#94B938"/>
<path d="M20.8696 9.05889V8.99626C20.8696 7.3871 21.9026 5.97633 23.4207 5.44266C23.903 5.27314 24.3933 5.04571 24.8606 4.74144C27.0547 3.31278 27.9073 0.732178 27.9073 0.732178L21.9108 4.60104C20.419 5.56352 19.9584 7.53519 20.8696 9.05889Z" fill="#94B938"/>
</g>
<defs>
<clipPath id="clip0_1677_111936">
<rect width="40" height="40" fill="white"/>
</clipPath>
</defs>
</svg>
