<svg width="15" height="16" viewBox="0 0 15 16" fill="none" xmlns="http://www.w3.org/2000/svg">
<g clip-path="url(#clip0_1677_112037)">
<path d="M7.50115 0.941162C5.29527 0.941162 3.53056 2.70587 3.53056 4.91175V6.67646C2.78056 6.67646 2.20703 7.24999 2.20703 7.99999V13.7353C2.20703 14.4853 2.78056 15.0588 3.53056 15.0588H11.4717C12.2217 15.0588 12.7953 14.4853 12.7953 13.7353V7.99999C12.7953 7.24999 12.2217 6.67646 11.4717 6.67646V4.91175C11.4717 2.70587 9.70703 0.941162 7.50115 0.941162ZM11.9129 7.99999V13.7353C11.9129 14 11.7364 14.1765 11.4717 14.1765H3.53056C3.26585 14.1765 3.08938 14 3.08938 13.7353V7.99999C3.08938 7.73528 3.26585 7.55881 3.53056 7.55881H3.97174H11.0306H11.4717C11.7364 7.55881 11.9129 7.73528 11.9129 7.99999ZM4.41291 6.67646V4.91175C4.41291 3.19116 5.78056 1.82352 7.50115 1.82352C9.22174 1.82352 10.5894 3.19116 10.5894 4.91175V6.67646H4.41291Z" fill="black"/>
<path d="M7.49931 8.88232C6.74931 8.88232 6.17578 9.45585 6.17578 10.2059C6.17578 10.7794 6.52872 11.2647 7.05813 11.4411V12.4117C7.05813 12.6764 7.2346 12.8529 7.49931 12.8529C7.76402 12.8529 7.94049 12.6764 7.94049 12.4117V11.4411C8.4699 11.2647 8.82284 10.7794 8.82284 10.2059C8.82284 9.45585 8.24931 8.88232 7.49931 8.88232ZM7.49931 10.647C7.2346 10.647 7.05813 10.4706 7.05813 10.2059C7.05813 9.94115 7.2346 9.76468 7.49931 9.76468C7.76402 9.76468 7.94049 9.94115 7.94049 10.2059C7.94049 10.4706 7.76402 10.647 7.49931 10.647Z" fill="black"/>
</g>
<defs>
<clipPath id="clip0_1677_112037">
<rect width="15" height="15" fill="white" transform="translate(0 0.5)"/>
</clipPath>
</defs>
</svg>
