<svg width="15" height="16" viewBox="0 0 15 16" fill="none" xmlns="http://www.w3.org/2000/svg">
<g clip-path="url(#clip0_1677_112244)">
<path d="M7.5 15.5C11.6421 15.5 15 12.1421 15 8C15 3.85786 11.6421 0.5 7.5 0.5C3.35786 0.5 0 3.85786 0 8C0 12.1421 3.35786 15.5 7.5 15.5Z" fill="#40A41A"/>
<path d="M3.97617 3.49429L3.97594 3.4944C3.10761 3.94745 2.7433 4.99505 3.14115 5.89001C3.71382 7.17834 4.48275 8.35675 5.41072 9.38873L6.11206 10.0901L10.7724 14.7504C11.939 14.184 12.9364 13.3239 13.6692 12.2665L11.9495 10.5469C11.8833 10.4492 11.7981 10.3624 11.6952 10.2926L5.20822 3.80563C4.93594 3.40441 4.40602 3.26999 3.97617 3.49429Z" fill="url(#paint0_linear_1677_112244)"/>
<path d="M10.2428 9.30703C10.0028 9.14417 9.68748 9.14499 9.44836 9.30911L9.10406 9.54542C8.72057 9.80863 8.21057 9.79433 7.84195 9.51065C7.49455 9.24325 7.16297 8.95656 6.84809 8.65275C6.54425 8.33786 6.25758 8.00631 5.99019 7.65888C5.70648 7.2903 5.69221 6.7803 5.95541 6.39677L6.19172 6.05247C6.35581 5.81335 6.35666 5.49806 6.1938 5.25806L5.20825 3.80567C4.936 3.40448 4.40608 3.27006 3.9762 3.49433L3.97594 3.49445C3.10761 3.94749 2.7433 4.99509 3.14115 5.89005C3.71382 7.17838 4.48275 8.35679 5.41072 9.38877L6.11206 10.0901C7.14407 11.0181 8.32248 11.787 9.61078 12.3597C10.5058 12.7575 11.5533 12.3932 12.0064 11.5249L12.0065 11.5246C12.2308 11.0948 12.0964 10.5648 11.6952 10.2926L10.2428 9.30703Z" fill="white"/>
</g>
<defs>
<linearGradient id="paint0_linear_1677_112244" x1="8.32481" y1="3.38611" x2="8.32481" y2="14.7504" gradientUnits="userSpaceOnUse">
<stop stop-color="#468230"/>
<stop offset="1" stop-color="#44A320" stop-opacity="0"/>
</linearGradient>
<clipPath id="clip0_1677_112244">
<rect width="15" height="15" fill="white" transform="translate(0 0.5)"/>
</clipPath>
</defs>
</svg>
