<svg width="15" height="16" viewBox="0 0 15 16" fill="none" xmlns="http://www.w3.org/2000/svg">
<g clip-path="url(#clip0_1677_112250)">
<path d="M1.17188 8.70312V10.5781C1.17188 11.6136 3.1657 12.4531 5.625 12.4531C8.0843 12.4531 10.0781 11.6136 10.0781 10.5781V8.70312H1.17188Z" fill="#5E87CA"/>
<path d="M1.17188 6.82812V8.70312C1.17188 9.73859 3.1657 10.5781 5.625 10.5781C8.0843 10.5781 10.0781 9.73859 10.0781 8.70312V6.82812H1.17188Z" fill="#78A0D4"/>
<path d="M5.625 8.70312C8.08439 8.70312 10.0781 7.86366 10.0781 6.82812C10.0781 5.79259 8.08439 4.95312 5.625 4.95312C3.16561 4.95312 1.17188 5.79259 1.17188 6.82812C1.17188 7.86366 3.16561 8.70312 5.625 8.70312Z" fill="#93BEE5"/>
<path d="M4.92188 11.2812V13.1562C4.92188 14.1917 6.9157 15.0312 9.375 15.0312C11.8343 15.0312 13.8281 14.1917 13.8281 13.1562V11.2812H4.92188Z" fill="#9DA1BF"/>
<path d="M4.92188 9.40625V11.2812C4.92188 12.3167 6.9157 13.1562 9.375 13.1562C11.8343 13.1562 13.8281 12.3167 13.8281 11.2812V9.40625H4.92188Z" fill="#C8CDED"/>
<path d="M4.92188 7.53125V9.40625C4.92188 10.4417 6.9157 11.2812 9.375 11.2812C11.8343 11.2812 13.8281 10.4417 13.8281 9.40625V7.53125H4.92188Z" fill="#E2E7F6"/>
<path d="M9.375 9.40625C11.8344 9.40625 13.8281 8.56678 13.8281 7.53125C13.8281 6.49572 11.8344 5.65625 9.375 5.65625C6.91561 5.65625 4.92188 6.49572 4.92188 7.53125C4.92188 8.56678 6.91561 9.40625 9.375 9.40625Z" fill="#F2F2F2"/>
<path d="M13.3594 5.1875V4.25L12.5923 4.09648C12.5144 3.72372 12.3669 3.369 12.1575 3.05094L12.5925 2.39844L11.9297 1.73562L11.2772 2.17062C10.9591 1.96122 10.6044 1.81372 10.2316 1.73586L10.0781 0.96875H9.14062L8.98711 1.73586C8.61435 1.81372 8.25962 1.96122 7.94156 2.17062L7.28906 1.73562L6.62625 2.39844L7.06125 3.05094C6.85185 3.369 6.70434 3.72372 6.62648 4.09648L5.85938 4.25V5.1875L6.62648 5.34102C6.70434 5.71378 6.85185 6.0685 7.06125 6.38656L6.62625 7.03906L7.28906 7.70188L7.94133 7.26687C8.25939 7.47628 8.61411 7.62378 8.98688 7.70164L9.14062 8.46875H10.0781L10.2316 7.70164C10.6044 7.62378 10.9591 7.47628 11.2772 7.26687L11.9297 7.70188L12.5925 7.03906L12.1575 6.3868C12.3669 6.06873 12.5144 5.71401 12.5923 5.34125L13.3594 5.1875Z" fill="#686868"/>
<path d="M9.60938 6.59375C10.6449 6.59375 11.4844 5.75428 11.4844 4.71875C11.4844 3.68322 10.6449 2.84375 9.60938 2.84375C8.57384 2.84375 7.73438 3.68322 7.73438 4.71875C7.73438 5.75428 8.57384 6.59375 9.60938 6.59375Z" fill="#F2F2F2"/>
</g>
<defs>
<clipPath id="clip0_1677_112250">
<rect width="15" height="15" fill="white" transform="translate(0 0.5)"/>
</clipPath>
</defs>
</svg>
