<svg width="21" height="20" viewBox="0 0 21 20" fill="none" xmlns="http://www.w3.org/2000/svg">
<g clip-path="url(#clip0_3087_16607)">
<path d="M20.1618 11.9231L19.2125 11.7275C19.1839 11.6506 19.1532 11.5745 19.1206 11.4991L19.6518 10.6922C19.7463 10.5509 19.7886 10.3811 19.7714 10.212C19.7541 10.0429 19.6785 9.88516 19.5574 9.76585L18.5905 8.79893C18.4712 8.67794 18.3134 8.60232 18.1443 8.58509C17.9753 8.56786 17.8055 8.61009 17.6642 8.70452L16.8828 9.21905C16.7971 9.17978 16.7102 9.14332 16.622 9.10968L16.4334 8.19479C16.4003 8.0281 16.3102 7.87816 16.1784 7.7708C16.0467 7.66343 15.8816 7.60536 15.7117 7.60659H15.1406V3.96597C15.1406 3.02847 14.3583 2.16909 12.9375 1.54636C11.5988 0.959559 9.82586 0.6362 7.94531 0.6362C6.06477 0.6362 4.2916 0.959364 2.95312 1.54616C1.53234 2.1689 0.75 3.02819 0.75 3.96577V16.0342C0.75 16.9717 1.53234 17.8311 2.95312 18.4538C4.29176 19.0406 6.06477 19.364 7.94531 19.364C10.1318 19.364 12.2109 18.91 13.557 18.1445L13.6225 18.4626C13.6556 18.6293 13.7458 18.7792 13.8775 18.8866C14.0093 18.9939 14.1743 19.052 14.3443 19.0508H15.7114C15.8814 19.052 16.0465 18.9939 16.1782 18.8866C16.3099 18.7792 16.4001 18.6292 16.4332 18.4625L16.6445 17.4372C16.6934 17.4181 16.742 17.3982 16.7903 17.3774L17.6641 17.9527C17.8054 18.0472 17.9752 18.0894 18.1443 18.0722C18.3134 18.0549 18.4711 17.9793 18.5904 17.8582L19.5573 16.8914C19.6784 16.7721 19.754 16.6143 19.7713 16.4452C19.7885 16.2761 19.7462 16.1063 19.6518 15.9651L19.0932 15.1168C19.1199 15.0578 19.1453 14.9984 19.1693 14.9385L20.1615 14.7341C20.3283 14.7011 20.4783 14.6109 20.5857 14.4791C20.6932 14.3473 20.7513 14.1822 20.75 14.0122V12.645C20.7513 12.475 20.6932 12.3099 20.5858 12.1782C20.4785 12.0464 20.3285 11.9562 20.1618 11.9231ZM7.94531 1.26116C11.8755 1.26116 14.5156 2.6596 14.5156 3.96577C14.5156 5.27194 11.8755 6.67038 7.94531 6.67038C4.01637 6.67038 1.37672 5.27276 1.375 3.96698V3.96503C1.37602 2.65909 4.01586 1.26116 7.94531 1.26116ZM2.95312 6.38538C4.29176 6.97218 6.06477 7.29554 7.94531 7.29554C9.82586 7.29554 11.599 6.97233 12.9375 6.38538C13.6133 6.08921 14.1441 5.73944 14.5156 5.35327V7.60647H14.3443C14.1744 7.60524 14.0093 7.6633 13.8776 7.77067C13.7458 7.87803 13.6556 8.02797 13.6225 8.19468L13.434 9.10952C13.3461 9.14322 13.2591 9.17968 13.1732 9.21889L12.3916 8.70436C12.2503 8.60989 12.0805 8.56764 11.9115 8.58488C11.7424 8.60212 11.5846 8.67778 11.4653 8.79882L10.4985 9.76569C10.4027 9.8601 10.3349 9.97914 10.3026 10.1097C10.2703 10.2402 10.2747 10.3771 10.3153 10.5053C9.53175 10.6322 8.73913 10.695 7.94535 10.693C4.01602 10.693 1.37621 9.29515 1.37504 7.98925V5.35331C1.74645 5.73944 2.27734 6.08921 2.95312 6.38538ZM2.95312 10.4082C4.29176 10.995 6.06477 11.3183 7.94531 11.3183C8.85516 11.3208 9.76335 11.2408 10.6588 11.0793L10.9353 11.4995C10.9026 11.5747 10.872 11.6508 10.8435 11.7276L9.89426 11.9232C9.72756 11.9563 9.57761 12.0465 9.47023 12.1782C9.36286 12.31 9.30479 12.475 9.30602 12.645V14.0122C9.30529 14.1329 9.33453 14.2519 9.39111 14.3586C9.44769 14.4653 9.52986 14.5562 9.63023 14.6233C9.07077 14.6857 8.50825 14.7167 7.94531 14.716C4.01562 14.716 1.37555 13.3178 1.375 12.0117V9.37612C1.74641 9.76229 2.27734 10.1121 2.95312 10.4082ZM13.3801 17.5234C12.1357 18.2844 10.1039 18.7388 7.94527 18.7388C4.01512 18.7388 1.37496 17.3403 1.37496 16.0342V13.3989C1.74637 13.7851 2.2773 14.1349 2.95309 14.431C4.29172 15.0178 6.06473 15.3412 7.94527 15.3412C8.9486 15.3452 9.94973 15.2474 10.9333 15.0493C10.9431 15.0719 10.9521 15.0947 10.9622 15.117L10.4039 15.9648C10.3095 16.1061 10.2672 16.2759 10.2844 16.445C10.3017 16.614 10.3773 16.7718 10.4984 16.8911L11.4652 17.858C11.5845 17.979 11.7423 18.0547 11.9114 18.0719C12.0805 18.0892 12.2503 18.0469 12.3916 17.9524L13.2654 17.3772C13.3136 17.398 13.3623 17.4179 13.4112 17.4369L13.4245 17.5012C13.4091 17.5074 13.3943 17.5149 13.3801 17.5234ZM20.125 14.0122C20.1257 14.0382 20.1171 14.0635 20.1007 14.0836C20.0843 14.1037 20.0612 14.1173 20.0357 14.1219L18.8753 14.3609C18.8226 14.3718 18.7737 14.396 18.7331 14.4313C18.6926 14.4666 18.6619 14.5117 18.6439 14.5624C18.5905 14.7122 18.5279 14.8585 18.4564 15.0006C18.4316 15.0497 18.4203 15.1044 18.4235 15.1593C18.4267 15.2141 18.4443 15.2672 18.4745 15.3131L19.1299 16.3086C19.1447 16.3299 19.1514 16.3558 19.1488 16.3816C19.1462 16.4074 19.1344 16.4314 19.1155 16.4492L18.1486 17.4161C18.1308 17.4349 18.1068 17.4467 18.081 17.4493C18.0552 17.4519 18.0293 17.4452 18.008 17.4304L16.9901 16.7603C16.9451 16.7307 16.8932 16.7132 16.8395 16.7096C16.7857 16.7059 16.7319 16.7162 16.6833 16.7395C16.5497 16.8035 16.4125 16.8597 16.2724 16.9078C16.221 16.9254 16.1751 16.9561 16.1392 16.9969C16.1033 17.0377 16.0787 17.0871 16.0677 17.1403L15.8213 18.3362C15.8167 18.3617 15.8032 18.3848 15.7831 18.4012C15.7629 18.4176 15.7376 18.4262 15.7116 18.4255H14.3445C14.3185 18.4262 14.2932 18.4176 14.273 18.4012C14.2529 18.3848 14.2393 18.3618 14.2348 18.3362L13.9883 17.1404C13.9773 17.0872 13.9527 17.0377 13.9168 16.9969C13.8809 16.9561 13.835 16.9254 13.7836 16.9078C13.6435 16.8598 13.5063 16.8037 13.3727 16.7398C13.3241 16.7165 13.2703 16.7062 13.2165 16.7099C13.1627 16.7135 13.1108 16.731 13.0658 16.7606L12.048 17.4307C12.0268 17.4455 12.0009 17.4522 11.9751 17.4496C11.9493 17.4469 11.9253 17.4352 11.9074 17.4164L10.9403 16.4492C10.9214 16.4314 10.9096 16.4074 10.907 16.3816C10.9044 16.3557 10.9111 16.3299 10.9259 16.3086L11.5812 15.3132C11.6114 15.2673 11.629 15.2142 11.6322 15.1594C11.6354 15.1045 11.6241 15.0498 11.5993 15.0007C11.5278 14.8586 11.4652 14.7121 11.4118 14.5622C11.3938 14.5116 11.3631 14.4665 11.3226 14.4312C11.282 14.3959 11.2331 14.3717 11.1805 14.3608L10.0203 14.1217C9.99476 14.1172 9.97169 14.1036 9.9553 14.0835C9.9389 14.0634 9.93027 14.038 9.93098 14.0121V12.6449C9.93028 12.619 9.93891 12.5936 9.9553 12.5735C9.9717 12.5534 9.99477 12.5398 10.0203 12.5353L11.1435 12.3039C11.1976 12.2928 11.2478 12.2675 11.289 12.2306C11.3302 12.1938 11.3608 12.1467 11.3779 12.0941C11.4318 11.9279 11.497 11.7657 11.5732 11.6084C11.5967 11.5597 11.6073 11.5057 11.6037 11.4517C11.6001 11.3977 11.5826 11.3456 11.5529 11.3004L10.9258 10.3485C10.9109 10.3272 10.9042 10.3013 10.9069 10.2755C10.9095 10.2497 10.9213 10.2257 10.9402 10.2079L11.907 9.241C11.9248 9.22219 11.9488 9.21041 11.9746 9.20778C12.0004 9.20514 12.0263 9.21185 12.0476 9.22667L12.9773 9.83858C13.0234 9.86891 13.0767 9.88651 13.1317 9.88958C13.1868 9.89265 13.2417 9.8811 13.2909 9.85608C13.4565 9.77185 13.628 9.69978 13.8041 9.64046C13.8559 9.62304 13.9023 9.59235 13.9385 9.55145C13.9747 9.51054 13.9996 9.46085 14.0106 9.40733L14.2345 8.32089C14.239 8.29533 14.2526 8.27226 14.2727 8.25587C14.2928 8.23948 14.3182 8.23085 14.3441 8.23155H15.7113C15.7373 8.23085 15.7626 8.23948 15.7827 8.25587C15.8029 8.27227 15.8164 8.29534 15.821 8.32089L16.0448 9.40737C16.0559 9.46089 16.0807 9.51058 16.117 9.55148C16.1532 9.59239 16.1995 9.62308 16.2513 9.6405C16.4274 9.69981 16.5989 9.77186 16.7646 9.85608C16.8137 9.8811 16.8686 9.89265 16.9237 9.88958C16.9788 9.88651 17.0321 9.86891 17.0781 9.83858L18.0078 9.22655C18.0291 9.21171 18.055 9.20499 18.0808 9.20761C18.1066 9.21024 18.1306 9.22203 18.1484 9.24085L19.1154 10.2078C19.1342 10.2256 19.146 10.2496 19.1486 10.2754C19.1512 10.3012 19.1445 10.3271 19.1297 10.3484L18.5032 11.3C18.4734 11.3452 18.4559 11.3974 18.4524 11.4514C18.4488 11.5054 18.4593 11.5593 18.4829 11.608C18.559 11.7654 18.6243 11.9277 18.6782 12.094C18.6953 12.1465 18.7259 12.1936 18.7671 12.2305C18.8083 12.2673 18.8585 12.2926 18.9126 12.3037L20.0356 12.5351C20.0612 12.5396 20.0843 12.5532 20.1007 12.5734C20.1171 12.5935 20.1257 12.6189 20.125 12.6448V14.0122ZM15.0279 10.6307C14.4943 10.6306 13.9727 10.7889 13.529 11.0853C13.0854 11.3818 12.7396 11.8031 12.5354 12.2961C12.3312 12.7891 12.2777 13.3315 12.3818 13.8549C12.4859 14.3782 12.7429 14.8589 13.1202 15.2362C13.4975 15.6135 13.9782 15.8705 14.5016 15.9746C15.0249 16.0787 15.5674 16.0253 16.0603 15.8211C16.5533 15.6169 16.9747 15.2711 17.2711 14.8274C17.5676 14.3837 17.7258 13.8621 17.7258 13.3285C17.725 12.6132 17.4405 11.9275 16.9347 11.4217C16.4289 10.916 15.7432 10.6315 15.0279 10.6307ZM15.0279 15.4014C14.6179 15.4014 14.2172 15.2798 13.8763 15.0521C13.5354 14.8243 13.2697 14.5006 13.1128 14.1218C12.9559 13.743 12.9148 13.3262 12.9948 12.9241C13.0748 12.522 13.2722 12.1527 13.5621 11.8628C13.852 11.5729 14.2214 11.3754 14.6235 11.2954C15.0256 11.2155 15.4424 11.2565 15.8211 11.4134C16.1999 11.5703 16.5237 11.836 16.7514 12.1769C16.9792 12.5178 17.1008 12.9185 17.1008 13.3285C17.1002 13.8781 16.8816 14.405 16.493 14.7936C16.1044 15.1822 15.5775 15.4008 15.0279 15.4014Z" fill="black"/>
</g>
<defs>
<clipPath id="clip0_3087_16607">
<rect width="20" height="20" fill="white" transform="translate(0.75)"/>
</clipPath>
</defs>
</svg>
