<svg width="21" height="20" viewBox="0 0 21 20" fill="none" xmlns="http://www.w3.org/2000/svg">
<g clip-path="url(#clip0_3087_16625)">
<path d="M18.8889 17.3333H1.11111C0.816426 17.3333 0.533811 17.4504 0.325437 17.6588C0.117063 17.8672 0 18.1498 0 18.4445C0 18.7391 0.117063 19.0218 0.325437 19.2301C0.533811 19.4385 0.816426 19.5556 1.11111 19.5556H18.8889C19.1836 19.5556 19.4662 19.4385 19.6746 19.2301C19.8829 19.0218 20 18.7391 20 18.4445C20 18.1498 19.8829 17.8672 19.6746 17.6588C19.4662 17.4504 19.1836 17.3333 18.8889 17.3333Z" fill="#757575"/>
<path d="M1.11111 6.22222H18.8889C19.1836 6.22222 19.4662 6.10516 19.6746 5.89679C19.8829 5.68841 20 5.4058 20 5.11111C20 4.81643 19.8829 4.53381 19.6746 4.32544C19.4662 4.11706 19.1836 4 18.8889 4H1.11111C0.816426 4 0.533811 4.11706 0.325437 4.32544C0.117063 4.53381 0 4.81643 0 5.11111C0 5.4058 0.117063 5.68841 0.325437 5.89679C0.533811 6.10516 0.816426 6.22222 1.11111 6.22222Z" fill="#757575"/>
<path d="M18.8889 10.6667H1.11111C0.816426 10.6667 0.533811 10.7837 0.325437 10.9921C0.117063 11.2005 0 11.4831 0 11.7778C0 12.0725 0.117063 12.3551 0.325437 12.5634C0.533811 12.7718 0.816426 12.8889 1.11111 12.8889H18.8889C19.1836 12.8889 19.4662 12.7718 19.6746 12.5634C19.8829 12.3551 20 12.0725 20 11.7778C20 11.4831 19.8829 11.2005 19.6746 10.9921C19.4662 10.7837 19.1836 10.6667 18.8889 10.6667Z" fill="#757575"/>
</g>
<defs>
<clipPath id="clip0_3087_16625">
<rect width="20" height="20" fill="white" transform="translate(0.5)"/>
</clipPath>
</defs>
</svg>
