<svg width="40" height="40" viewBox="0 0 40 40" fill="none" xmlns="http://www.w3.org/2000/svg">
<circle cx="20" cy="20" r="20" fill="#286FC3" fill-opacity="0.2"/>
<path d="M4.375 14.375H6.875V21.875H4.375V14.375Z" fill="#4F5659"/>
<path d="M8.125 2.5H3.125C2.43464 2.5 1.875 3.05964 1.875 3.75V13.75C1.875 14.4404 2.43464 15 3.125 15H8.125C8.81536 15 9.375 14.4404 9.375 13.75V3.75C9.375 3.05964 8.81536 2.5 8.125 2.5Z" fill="#606669"/>
<path d="M1.875 21.25H9.375V23.75H1.875V21.25Z" fill="#606669"/>
<path d="M5.625 7.5C6.31536 7.5 6.875 6.94036 6.875 6.25C6.875 5.55964 6.31536 5 5.625 5C4.93464 5 4.375 5.55964 4.375 6.25C4.375 6.94036 4.93464 7.5 5.625 7.5Z" fill="#EB423F"/>
<path d="M5.625 10C6.31536 10 6.875 9.44036 6.875 8.75C6.875 8.05964 6.31536 7.5 5.625 7.5C4.93464 7.5 4.375 8.05964 4.375 8.75C4.375 9.44036 4.93464 10 5.625 10Z" fill="#FFD33A"/>
<path d="M5.625 12.5C6.31536 12.5 6.875 11.9404 6.875 11.25C6.875 10.5596 6.31536 10 5.625 10C4.93464 10 4.375 10.5596 4.375 11.25C4.375 11.9404 4.93464 12.5 5.625 12.5Z" fill="#3DC285"/>
<path d="M26.875 16.25L25.0036 11.5715C24.818 11.1076 24.4977 10.7099 24.084 10.4298C23.6702 10.1497 23.1821 10 22.6824 10H17.0405C16.6088 10 16.1844 10.1118 15.8087 10.3245C15.433 10.5372 15.1188 10.8436 14.8967 11.2137L11.875 16.25L8.76867 17.0266C8.22777 17.1618 7.7476 17.4739 7.40448 17.9134C7.06136 18.3529 6.87499 18.8944 6.875 19.452V22.5C6.875 22.8315 7.0067 23.1495 7.24112 23.3839C7.47554 23.6183 7.79348 23.75 8.125 23.75H29.375C29.7065 23.75 30.0245 23.6183 30.2589 23.3839C30.4933 23.1495 30.625 22.8315 30.625 22.5V18.75C30.625 18.087 30.3616 17.4511 29.8928 16.9822C29.4239 16.5134 28.788 16.25 28.125 16.25H26.875Z" fill="#E6BE34"/>
<path d="M11.875 26.25C13.2557 26.25 14.375 25.1307 14.375 23.75C14.375 22.3693 13.2557 21.25 11.875 21.25C10.4943 21.25 9.375 22.3693 9.375 23.75C9.375 25.1307 10.4943 26.25 11.875 26.25Z" fill="#414649"/>
<path d="M11.875 24.375C12.2202 24.375 12.5 24.0952 12.5 23.75C12.5 23.4048 12.2202 23.125 11.875 23.125C11.5298 23.125 11.25 23.4048 11.25 23.75C11.25 24.0952 11.5298 24.375 11.875 24.375Z" fill="#E9EEF2"/>
<path d="M18.125 13.75V15C18.125 15.3315 17.9933 15.6495 17.7589 15.8839C17.5245 16.1183 17.2065 16.25 16.875 16.25H11.875L14.125 12.5H16.875C17.2065 12.5 17.5245 12.6317 17.7589 12.8661C17.9933 13.1005 18.125 13.4185 18.125 13.75Z" fill="#3397E8"/>
<path d="M10.625 16.5625V18.75C10.625 19.0815 10.4933 19.3995 10.2589 19.6339C10.0245 19.8683 9.70652 20 9.375 20H6.875V19.4516C6.87499 18.894 7.06137 18.3525 7.40452 17.9131C7.74766 17.4737 8.22785 17.1617 8.76875 17.0266L10.625 16.5625Z" fill="#FFD33A"/>
<path d="M24.375 16.25H21.875C21.5435 16.25 21.2255 16.1183 20.9911 15.8839C20.7567 15.6495 20.625 15.3315 20.625 15V13.75C20.625 13.4185 20.7567 13.1005 20.9911 12.8661C21.2255 12.6317 21.5435 12.5 21.875 12.5H23.125L24.375 16.25Z" fill="#3397E8"/>
<path d="M18.125 19.375H16.875C16.7092 19.375 16.5503 19.3092 16.4331 19.1919C16.3158 19.0747 16.25 18.9158 16.25 18.75C16.25 18.5842 16.3158 18.4253 16.4331 18.3081C16.5503 18.1908 16.7092 18.125 16.875 18.125H18.125C18.2908 18.125 18.4497 18.1908 18.5669 18.3081C18.6842 18.4253 18.75 18.5842 18.75 18.75C18.75 18.9158 18.6842 19.0747 18.5669 19.1919C18.4497 19.3092 18.2908 19.375 18.125 19.375Z" fill="#FFD33A"/>
<path d="M34.375 21.25L32.5036 16.5715C32.318 16.1076 31.9977 15.7099 31.584 15.4298C31.1702 15.1497 30.6821 15 30.1824 15H24.5405C24.1088 15 23.6844 15.1118 23.3087 15.3245C22.933 15.5372 22.6188 15.8436 22.3967 16.2137L19.375 21.25L16.2687 22.0266C15.7278 22.1618 15.2476 22.4739 14.9045 22.9134C14.5614 23.3529 14.375 23.8944 14.375 24.452V27.5C14.375 27.8315 14.5067 28.1495 14.7411 28.3839C14.9755 28.6183 15.2935 28.75 15.625 28.75H36.875C37.2065 28.75 37.5245 28.6183 37.7589 28.3839C37.9933 28.1495 38.125 27.8315 38.125 27.5V23.75C38.125 23.087 37.8616 22.4511 37.3928 21.9822C36.9239 21.5134 36.288 21.25 35.625 21.25H34.375Z" fill="#FFD33A"/>
<path d="M33.125 31.25C34.5057 31.25 35.625 30.1307 35.625 28.75C35.625 27.3693 34.5057 26.25 33.125 26.25C31.7443 26.25 30.625 27.3693 30.625 28.75C30.625 30.1307 31.7443 31.25 33.125 31.25Z" fill="#414649"/>
<path d="M33.125 29.375C33.4702 29.375 33.75 29.0952 33.75 28.75C33.75 28.4048 33.4702 28.125 33.125 28.125C32.7798 28.125 32.5 28.4048 32.5 28.75C32.5 29.0952 32.7798 29.375 33.125 29.375Z" fill="#E9EEF2"/>
<path d="M25.625 18.75V20C25.625 20.3315 25.4933 20.6495 25.2589 20.8839C25.0245 21.1183 24.7065 21.25 24.375 21.25H19.375L21.625 17.5H24.375C24.7065 17.5 25.0245 17.6317 25.2589 17.8661C25.4933 18.1005 25.625 18.4185 25.625 18.75Z" fill="#3397E8"/>
<path d="M31.875 21.25H29.375C29.0435 21.25 28.7255 21.1183 28.4911 20.8839C28.2567 20.6495 28.125 20.3315 28.125 20V18.75C28.125 18.4185 28.2567 18.1005 28.4911 17.8661C28.7255 17.6317 29.0435 17.5 29.375 17.5H30.625L31.875 21.25Z" fill="#3397E8"/>
<path d="M38.125 23.75H35.625C35.2935 23.75 34.9755 23.6183 34.7411 23.3839C34.5067 23.1495 34.375 22.8315 34.375 22.5V21.25H35.625C36.288 21.25 36.9239 21.5134 37.3928 21.9822C37.8616 22.4511 38.125 23.087 38.125 23.75Z" fill="#EB423F"/>
<path d="M25.625 24.375H24.375C24.2092 24.375 24.0503 24.3092 23.9331 24.1919C23.8158 24.0747 23.75 23.9158 23.75 23.75C23.75 23.5842 23.8158 23.4253 23.9331 23.3081C24.0503 23.1908 24.2092 23.125 24.375 23.125H25.625C25.7908 23.125 25.9497 23.1908 26.0669 23.3081C26.1842 23.4253 26.25 23.5842 26.25 23.75C26.25 23.9158 26.1842 24.0747 26.0669 24.1919C25.9497 24.3092 25.7908 24.375 25.625 24.375Z" fill="#FFE76C"/>
<path d="M26.875 27.5L25.0036 22.8215C24.818 22.3576 24.4977 21.9599 24.084 21.6798C23.6702 21.3997 23.1821 21.25 22.6824 21.25H17.0405C16.6088 21.25 16.1844 21.3618 15.8087 21.5745C15.433 21.7872 15.1188 22.0936 14.8967 22.4638L11.875 27.5L8.76867 28.2766C8.22777 28.4118 7.7476 28.7239 7.40448 29.1634C7.06136 29.6029 6.87499 30.1444 6.875 30.702V33.75C6.875 34.0815 7.0067 34.3995 7.24112 34.6339C7.47554 34.8683 7.79348 35 8.125 35H29.375C29.7065 35 30.0245 34.8683 30.2589 34.6339C30.4933 34.3995 30.625 34.0815 30.625 33.75V30C30.625 29.337 30.3616 28.7011 29.8928 28.2322C29.4239 27.7634 28.788 27.5 28.125 27.5H26.875Z" fill="#EB423F"/>
<path d="M11.875 37.5C13.2557 37.5 14.375 36.3807 14.375 35C14.375 33.6193 13.2557 32.5 11.875 32.5C10.4943 32.5 9.375 33.6193 9.375 35C9.375 36.3807 10.4943 37.5 11.875 37.5Z" fill="#414649"/>
<path d="M25.625 37.5C27.0057 37.5 28.125 36.3807 28.125 35C28.125 33.6193 27.0057 32.5 25.625 32.5C24.2443 32.5 23.125 33.6193 23.125 35C23.125 36.3807 24.2443 37.5 25.625 37.5Z" fill="#414649"/>
<path d="M11.875 35.625C12.2202 35.625 12.5 35.3452 12.5 35C12.5 34.6548 12.2202 34.375 11.875 34.375C11.5298 34.375 11.25 34.6548 11.25 35C11.25 35.3452 11.5298 35.625 11.875 35.625Z" fill="#E9EEF2"/>
<path d="M25.625 35.625C25.9702 35.625 26.25 35.3452 26.25 35C26.25 34.6548 25.9702 34.375 25.625 34.375C25.2798 34.375 25 34.6548 25 35C25 35.3452 25.2798 35.625 25.625 35.625Z" fill="#E9EEF2"/>
<path d="M18.125 25V26.25C18.125 26.5815 17.9933 26.8995 17.7589 27.1339C17.5245 27.3683 17.2065 27.5 16.875 27.5H11.875L14.125 23.75H16.875C17.2065 23.75 17.5245 23.8817 17.7589 24.1161C17.9933 24.3505 18.125 24.6685 18.125 25Z" fill="#3397E8"/>
<path d="M10.625 27.8125V30C10.625 30.3315 10.4933 30.6495 10.2589 30.8839C10.0245 31.1183 9.70652 31.25 9.375 31.25H6.875V30.7016C6.87499 30.1441 7.06137 29.6025 7.40452 29.1631C7.74766 28.7237 8.22785 28.4117 8.76875 28.2766L10.625 27.8125Z" fill="#FFD33A"/>
<path d="M24.375 27.5H21.875C21.5435 27.5 21.2255 27.3683 20.9911 27.1339C20.7567 26.8995 20.625 26.5815 20.625 26.25V25C20.625 24.6685 20.7567 24.3505 20.9911 24.1161C21.2255 23.8817 21.5435 23.75 21.875 23.75H23.125L24.375 27.5Z" fill="#3397E8"/>
<path d="M30.625 30H28.125C27.7935 30 27.4755 29.8683 27.2411 29.6339C27.0067 29.3995 26.875 29.0815 26.875 28.75V27.5H28.125C28.788 27.5 29.4239 27.7634 29.8928 28.2322C30.3616 28.7011 30.625 29.337 30.625 30Z" fill="#C7312E"/>
<path d="M18.125 30.625H16.875C16.7092 30.625 16.5503 30.5592 16.4331 30.4419C16.3158 30.3247 16.25 30.1658 16.25 30C16.25 29.8342 16.3158 29.6753 16.4331 29.5581C16.5503 29.4408 16.7092 29.375 16.875 29.375H18.125C18.2908 29.375 18.4497 29.4408 18.5669 29.5581C18.6842 29.6753 18.75 29.8342 18.75 30C18.75 30.1658 18.6842 30.3247 18.5669 30.4419C18.4497 30.5592 18.2908 30.625 18.125 30.625Z" fill="#C7312E"/>
</svg>
