<svg width="21" height="20" viewBox="0 0 21 20" fill="none" xmlns="http://www.w3.org/2000/svg">
<path d="M18.17 6.42511L10.9825 2.11261C10.8368 2.02518 10.6701 1.979 10.5002 1.979C10.3302 1.979 10.1635 2.02518 10.0178 2.11261L2.83031 6.42511C2.69177 6.50869 2.5771 6.62655 2.49736 6.76733C2.41761 6.90811 2.37547 7.06706 2.375 7.22886V16.5626C2.3755 16.9769 2.54028 17.374 2.83319 17.6669C3.12611 17.9598 3.52325 18.1246 3.9375 18.1251H7.375C7.62364 18.1251 7.8621 18.0263 8.03791 17.8505C8.21373 17.6747 8.3125 17.4362 8.3125 17.1876V13.1251C8.3125 13.0422 8.34542 12.9627 8.40403 12.9041C8.46263 12.8455 8.54212 12.8126 8.625 12.8126H12.375C12.4579 12.8126 12.5374 12.8455 12.596 12.9041C12.6546 12.9627 12.6875 13.0422 12.6875 13.1251V17.1876C12.6875 17.4362 12.7863 17.6747 12.9621 17.8505C13.1379 18.0263 13.3764 18.1251 13.625 18.1251H17.0625C17.4767 18.1246 17.8739 17.9598 18.1668 17.6669C18.4597 17.374 18.6245 16.9769 18.625 16.5626V7.22886C18.6246 7.06709 18.5825 6.90816 18.5028 6.76738C18.4231 6.62661 18.3085 6.50873 18.17 6.42511ZM18 16.5626C18 16.8112 17.9012 17.0497 17.7254 17.2255C17.5496 17.4013 17.3111 17.5001 17.0625 17.5001H13.625C13.5421 17.5001 13.4626 17.4672 13.404 17.4086C13.3454 17.35 13.3125 17.2705 13.3125 17.1876V13.1251C13.3125 12.8765 13.2137 12.638 13.0379 12.4622C12.8621 12.2864 12.6236 12.1876 12.375 12.1876H8.625C8.37636 12.1876 8.1379 12.2864 7.96209 12.4622C7.78627 12.638 7.6875 12.8765 7.6875 13.1251V17.1876C7.6875 17.2705 7.65458 17.35 7.59597 17.4086C7.53737 17.4672 7.45788 17.5001 7.375 17.5001H3.9375C3.68886 17.5001 3.4504 17.4013 3.27459 17.2255C3.09877 17.0497 3 16.8112 3 16.5626V7.22886C3.00001 7.17493 3.01397 7.12193 3.04053 7.075C3.06709 7.02807 3.10534 6.98881 3.15156 6.96104L10.3391 2.64854C10.3877 2.61928 10.4434 2.60382 10.5002 2.60382C10.5569 2.60382 10.6126 2.61928 10.6612 2.64854L17.8487 6.96104C17.895 6.98881 17.9332 7.02807 17.9598 7.075C17.9863 7.12193 18.0003 7.17493 18.0003 7.22886L18 16.5626Z" fill="black"/>
</svg>
