<svg width="15" height="16" viewBox="0 0 15 16" fill="none" xmlns="http://www.w3.org/2000/svg">
<g clip-path="url(#clip0_1677_112033)">
<path d="M12.8033 2.69669C11.3868 1.28014 9.50329 0.5 7.5 0.5C5.49671 0.5 3.61324 1.28014 2.19669 2.69669C0.780144 4.11324 0 5.99671 0 8C0 10.0033 0.780144 11.8868 2.19669 13.3033C3.61324 14.7199 5.49671 15.5 7.5 15.5C9.50329 15.5 11.3868 14.7199 12.8033 13.3033C14.2199 11.8868 15 10.0033 15 8C15 5.99671 14.2199 4.11324 12.8033 2.69669ZM3.25504 13.0771C3.50269 10.9462 5.33478 9.30096 7.5 9.30096C8.64143 9.30096 9.71478 9.74568 10.5222 10.5529C11.2042 11.2351 11.6344 12.1258 11.7451 13.0769C10.5949 14.0402 9.11407 14.6211 7.5 14.6211C5.88593 14.6211 4.40517 14.0403 3.25504 13.0771ZM7.5 8.39574C6.24401 8.39574 5.22205 7.37378 5.22205 6.11779C5.22205 4.86169 6.24401 3.83984 7.5 3.83984C8.75599 3.83984 9.77795 4.86169 9.77795 6.11779C9.77795 7.37378 8.75599 8.39574 7.5 8.39574ZM12.5015 12.334C12.2776 11.4311 11.8105 10.5985 11.1436 9.93153C10.6034 9.39137 9.96437 8.98614 9.26743 8.73219C10.1052 8.16399 10.6569 7.20406 10.6569 6.11779C10.6569 4.37714 9.24065 2.96094 7.5 2.96094C5.75935 2.96094 4.34315 4.37714 4.34315 6.11779C4.34315 7.20464 4.89521 8.16491 5.73372 8.73299C5.09251 8.96668 4.49913 9.32797 3.98861 9.80359C3.24932 10.4921 2.73594 11.3699 2.4979 12.3333C1.48979 11.1712 0.878906 9.65562 0.878906 8C0.878906 4.34911 3.84911 1.37891 7.5 1.37891C11.1509 1.37891 14.1211 4.34911 14.1211 8C14.1211 9.65596 13.51 11.1718 12.5015 12.334Z" fill="#2C384A"/>
</g>
<defs>
<clipPath id="clip0_1677_112033">
<rect width="15" height="15" fill="white" transform="translate(0 0.5)"/>
</clipPath>
</defs>
</svg>
