<svg width="108" height="106" viewBox="0 0 108 106" fill="none" xmlns="http://www.w3.org/2000/svg">
<g clip-path="url(#clip0_1677_111420)">
<path d="M92.1838 15.5233C81.9846 5.51302 68.4237 0 54 0C39.5763 0 26.0154 5.51302 15.8162 15.5233C5.61703 25.5336 0 38.8434 0 53C0 67.1566 5.61703 80.4664 15.8162 90.4767C26.0154 100.487 39.5763 106 54 106C68.4237 106 81.9846 100.487 92.1838 90.4767C102.383 80.4664 108 67.1566 108 53C108 38.8434 102.383 25.5336 92.1838 15.5233ZM23.4363 88.8779C25.2194 73.8196 38.4104 62.1935 54 62.1935C62.2183 62.1935 69.9464 65.3362 75.7595 71.0408C80.6704 75.8616 83.7677 82.1558 84.5645 88.8771C76.2836 95.684 65.6213 99.7891 54 99.7891C42.3787 99.7891 31.7173 95.6848 23.4363 88.8779ZM54 55.7965C44.9569 55.7965 37.5988 48.5747 37.5988 39.6991C37.5988 30.8226 44.9569 23.6016 54 23.6016C63.0431 23.6016 70.4012 30.8226 70.4012 39.6991C70.4012 48.5747 63.0431 55.7965 54 55.7965ZM90.011 83.6269C88.3985 77.2461 85.0358 71.3627 80.2337 66.6495C76.3445 62.8324 71.7435 59.9687 66.7255 58.1742C72.7578 54.1589 76.7293 47.3754 76.7293 39.6991C76.7293 27.3985 66.5327 17.3906 54 17.3906C41.4673 17.3906 31.2707 27.3985 31.2707 39.6991C31.2707 47.3794 35.2455 54.1654 41.2828 58.1798C36.666 59.8312 32.3937 62.3843 28.718 65.7454C23.3951 70.6106 19.6988 76.8143 17.9849 83.622C10.7265 75.4095 6.32812 64.6997 6.32812 53C6.32812 27.2003 27.7136 6.21094 54 6.21094C80.2864 6.21094 101.672 27.2003 101.672 53C101.672 64.7021 97.2719 75.4144 90.011 83.6269Z" fill="#286FC3"/>
<g clip-path="url(#clip1_1677_111420)">
<path d="M105.218 88.3046C104.21 87.3487 102.578 87.3487 101.57 88.3046L100.656 89.177L90.9345 98.4079L90.9138 98.4276C90.9088 98.4324 90.9088 98.4375 90.9035 98.4375C90.8932 98.4522 90.8777 98.4667 90.8675 98.4815C90.8675 98.4864 90.8622 98.4864 90.8622 98.4913C90.8519 98.506 90.8469 98.5158 90.8364 98.5305C90.8314 98.5354 90.8314 98.5402 90.8262 98.5453C90.821 98.56 90.8159 98.5698 90.8105 98.5845C90.8105 98.5893 90.8055 98.5893 90.8055 98.5943L88.6485 104.756C88.5853 104.932 88.6334 105.126 88.7723 105.256C88.87 105.348 89.0017 105.399 89.1388 105.399C89.1948 105.398 89.2503 105.389 89.3039 105.374L95.7852 103.32C95.7902 103.32 95.7902 103.32 95.7955 103.315C95.8118 103.311 95.8275 103.304 95.8419 103.295C95.8459 103.295 95.8494 103.293 95.8523 103.291C95.8677 103.281 95.8883 103.271 95.9038 103.261C95.9192 103.251 95.9348 103.237 95.9503 103.227C95.9555 103.222 95.9605 103.222 95.9605 103.217C95.9658 103.212 95.9761 103.207 95.9813 103.197L106.616 93.094C107.623 92.1364 107.623 90.5856 106.616 89.6281L105.218 88.3046ZM95.6201 102.168L92.0286 98.7561L101.018 90.2165L104.609 93.6283L95.6201 102.168ZM91.5227 99.663L94.6603 102.644L89.9489 104.134L91.5227 99.663ZM105.889 92.4076L105.342 92.9322L101.75 89.5202L102.303 88.9957C102.907 88.4222 103.886 88.4222 104.49 88.9957L105.894 90.3291C106.494 90.9056 106.491 91.8338 105.889 92.4076Z" fill="#286FC3"/>
</g>
</g>
<defs>
<clipPath id="clip0_1677_111420">
<rect width="108" height="106" fill="white"/>
</clipPath>
<clipPath id="clip1_1677_111420">
<rect width="20" height="19" fill="white" transform="translate(88 87)"/>
</clipPath>
</defs>
</svg>
