<svg width="115" height="117" viewBox="0 0 115 117" fill="none" xmlns="http://www.w3.org/2000/svg">
<g clip-path="url(#clip0_1677_114433)">
<path d="M92.1838 15.5233C81.9846 5.51302 68.4237 0 54 0C39.5763 0 26.0154 5.51302 15.8162 15.5233C5.61703 25.5336 0 38.8434 0 53C0 67.1566 5.61703 80.4664 15.8162 90.4767C26.0154 100.487 39.5763 106 54 106C68.4237 106 81.9846 100.487 92.1838 90.4767C102.383 80.4664 108 67.1566 108 53C108 38.8434 102.383 25.5336 92.1838 15.5233ZM23.4363 88.8779C25.2194 73.8196 38.4104 62.1935 54 62.1935C62.2183 62.1935 69.9464 65.3362 75.7595 71.0408C80.6704 75.8616 83.7677 82.1558 84.5645 88.8771C76.2836 95.684 65.6213 99.7891 54 99.7891C42.3787 99.7891 31.7173 95.6848 23.4363 88.8779ZM54 55.7965C44.9569 55.7965 37.5988 48.5747 37.5988 39.6991C37.5988 30.8226 44.9569 23.6016 54 23.6016C63.0431 23.6016 70.4012 30.8226 70.4012 39.6991C70.4012 48.5747 63.0431 55.7965 54 55.7965ZM90.011 83.6269C88.3985 77.2461 85.0358 71.3627 80.2337 66.6495C76.3445 62.8324 71.7435 59.9687 66.7255 58.1742C72.7578 54.1589 76.7293 47.3754 76.7293 39.6991C76.7293 27.3985 66.5327 17.3906 54 17.3906C41.4673 17.3906 31.2707 27.3985 31.2707 39.6991C31.2707 47.3794 35.2455 54.1654 41.2828 58.1798C36.666 59.8312 32.3937 62.3843 28.718 65.7454C23.3951 70.6106 19.6988 76.8143 17.9849 83.622C10.7265 75.4095 6.32812 64.6997 6.32812 53C6.32812 27.2003 27.7136 6.21094 54 6.21094C80.2864 6.21094 101.672 27.2003 101.672 53C101.672 64.7021 97.2719 75.4144 90.011 83.6269Z" fill="#286FC3"/>
</g>
<path d="M100 112.939C99.1908 112.939 98.5352 112.33 98.5352 111.578V94.2787C98.5352 93.5273 99.1908 92.9185 100 92.9185C100.809 92.9185 101.465 93.5273 101.465 94.2787V111.578C101.465 112.33 100.809 112.939 100 112.939Z" fill="#286FC3"/>
<path d="M109.314 104.289H90.6836C89.8744 104.289 89.2188 103.68 89.2188 102.929C89.2188 102.177 89.8744 101.568 90.6836 101.568H109.314C110.123 101.568 110.779 102.177 110.779 102.929C110.779 103.68 110.123 104.289 109.314 104.289Z" fill="#286FC3"/>
<defs>
<clipPath id="clip0_1677_114433">
<rect width="108" height="106" fill="white"/>
</clipPath>
</defs>
</svg>
