<svg width="57" height="52" viewBox="0 0 57 52" fill="none" xmlns="http://www.w3.org/2000/svg">
<path fill-rule="evenodd" clip-rule="evenodd" d="M47.5263 51.8232C47.3717 51.8232 47.2172 51.8195 47.0609 51.812L9.93928 51.8121C6.39156 51.9852 3.05823 50.1234 1.2734 47.0328C-0.428184 44.0849 -0.424503 40.5578 1.28471 37.5975L20.2574 4.73613C21.9693 1.77022 25.0508 0 28.4996 0C31.9484 0 35.0302 1.7705 36.7427 4.73613L55.7154 37.5975C57.4245 40.5577 57.4282 44.0847 55.7266 47.0323C54.0201 49.987 50.8784 51.8228 47.5263 51.8232Z" fill="#FCBE37"/>
<path fill-rule="evenodd" clip-rule="evenodd" d="M31.795 45.9678H25.2073C24.3461 45.9678 23.6484 45.27 23.6484 44.4089V38.9577C23.6484 38.0966 24.3461 37.3988 25.2073 37.3988L31.795 37.3989C32.6561 37.3989 33.3539 38.0967 33.3539 38.9578V44.4091C33.3539 45.2698 32.6556 45.9678 31.795 45.9678ZM31.795 35.2981H25.2073C24.3786 35.2981 23.695 34.65 23.6507 33.8226L22.5374 13.0618C22.5145 12.6367 22.6698 12.2149 22.9628 11.906C23.2572 11.5957 23.6662 11.4194 24.094 11.4194L32.9085 11.4196C33.3365 11.4196 33.7456 11.5955 34.0399 11.9063C34.3328 12.2155 34.4881 12.6365 34.4652 13.062L33.3518 33.8227C33.3075 34.6496 32.6231 35.2981 31.795 35.2981Z" fill="#FCAB32"/>
<path fill-rule="evenodd" clip-rule="evenodd" d="M31.795 45.0776C32.164 45.0776 32.4632 44.7788 32.4632 44.4097V38.9584C32.4632 38.5888 32.1646 38.2902 31.795 38.2902L25.2073 38.29C24.8377 38.29 24.5391 38.5888 24.5391 38.9582V44.4094C24.5391 44.7789 24.8377 45.0776 25.2073 45.0776L31.795 45.0776Z" fill="#FBFBFB"/>
<path fill-rule="evenodd" clip-rule="evenodd" d="M31.795 34.4078C32.15 34.4078 32.4435 34.1299 32.4624 33.7754L33.5758 13.0146C33.5856 12.832 33.5188 12.6519 33.3931 12.5191C33.267 12.386 33.0918 12.3107 32.9085 12.3107L24.094 12.3105C23.9106 12.3105 23.7353 12.3863 23.609 12.5194C23.4833 12.6519 23.4169 12.832 23.4267 13.0145L24.5401 33.7752C24.559 34.1302 24.8516 34.4078 25.2072 34.4078H31.795Z" fill="#FBFBFB"/>
</svg>
