<svg width="41" height="40" viewBox="0 0 41 40" fill="none" xmlns="http://www.w3.org/2000/svg">
<circle cx="20.6016" cy="20" r="20" fill="#286FC3" fill-opacity="0.2"/>
<g clip-path="url(#clip0_1677_111930)">
<path d="M20.6016 1.71875C10.0305 1.71875 1.46094 10.2883 1.46094 20.8594C1.46094 26.4914 3.89375 31.555 7.76547 35.0575L8.93734 35.3125L12.9101 38.3904C13.3636 38.5897 13.8268 38.7709 14.2979 38.9352L14.883 38.5921L15.4688 39.3027C16.9535 39.7155 18.5107 39.954 20.1173 39.9939L34.7503 33.75C37.8512 30.3484 39.7422 25.8248 39.7422 20.8594C39.7422 10.2883 31.1727 1.71875 20.6016 1.71875Z" fill="#FFDD40"/>
<path d="M20.6016 38.4375C29.231 38.4375 36.2266 31.4419 36.2266 22.8125C36.2266 14.1831 29.231 7.1875 20.6016 7.1875C11.9721 7.1875 4.97656 14.1831 4.97656 22.8125C4.97656 31.4419 11.9721 38.4375 20.6016 38.4375Z" fill="#FFC839"/>
<path d="M22.5895 17.9336C22.8184 18.1624 23.1894 18.1624 23.4182 17.9336L29.2187 12.1331C29.4475 11.9043 29.4475 11.5333 29.2187 11.3044C28.9898 11.0756 28.6188 11.0756 28.39 11.3044L22.5895 17.1049C22.3608 17.3337 22.3608 17.7047 22.5895 17.9336Z" fill="#D3DCFB"/>
<path d="M35.0195 17.9336C35.2483 17.7047 35.2483 17.3337 35.0195 17.1049L29.219 11.3044C28.9902 11.0756 28.6192 11.0756 28.3904 11.3044C28.1615 11.5333 28.1615 11.9043 28.3904 12.1331L34.1908 17.9336C34.4197 18.1623 34.7908 18.1623 35.0195 17.9336Z" fill="#D3DCFB"/>
<path d="M15.4691 22.3214V21.8262L9.19125 15.7244L15.2915 9.79515L14.4747 8.95483L7.9432 15.3033L7.76562 15.4778V15.973L14.0434 22.0748L7.9432 28.0041L7.76562 28.1787V28.6737L14.0434 34.7756L11.3934 37.3513L12.3797 38.0269L15.2915 35.1968L15.4691 35.0222V34.527L9.19125 28.4252L15.2915 22.4959L15.4691 22.3214Z" fill="#BEC8F7"/>
<path d="M15.469 15.971V15.4758L8.75992 8.95483L7.94313 9.79515L14.0434 15.7244L7.94313 21.6537L7.76562 21.8283V22.3234L14.0434 28.4253L7.9432 34.3546L7.7657 34.5291L8.93758 36.0349L8.93719 36.0351C10.1541 36.9717 11.4869 37.765 12.9103 38.3905L9.19133 34.7757L15.2916 28.8464L15.4691 28.6719V28.1767L9.19125 22.0748L15.2915 16.1455L15.469 15.971Z" fill="#D3DCFB"/>
<path d="M7.76562 35.0575C8.14273 35.3987 8.53398 35.7243 8.9375 36.0348V7.8125H7.76562V35.0575Z" fill="#E9EFFF"/>
<path d="M14.2969 38.936C14.6821 39.0703 15.0727 39.193 15.4688 39.303V7.8125H14.2969V38.936Z" fill="#E9EFFF"/>
<path d="M37.0078 5.85938H4.19531C3.54812 5.85938 3.02344 5.33469 3.02344 4.6875C3.02344 4.04031 3.54812 3.51562 4.19531 3.51562H37.0078C37.655 3.51562 38.1797 4.04031 38.1797 4.6875C38.1797 5.33469 37.655 5.85938 37.0078 5.85938Z" fill="#5F5F9B"/>
<path d="M20.6016 4.6875C20.6016 4.04031 21.1262 3.51562 21.7734 3.51562H4.19531C3.54812 3.51562 3.02344 4.04031 3.02344 4.6875C3.02344 5.33469 3.54812 5.85938 4.19531 5.85938H21.7734C21.1262 5.85938 20.6016 5.33469 20.6016 4.6875Z" fill="#47477F"/>
<path d="M8.87648 0H14.3579C15.0356 0 15.6191 0.478359 15.752 1.14289L17.0584 7.67445C17.0767 7.76625 17.0859 7.85969 17.0859 7.95328C17.0859 8.73844 16.4494 9.375 15.6642 9.375H7.57016C6.785 9.375 6.14844 8.73844 6.14844 7.95328C6.14844 7.85969 6.15766 7.76625 6.17602 7.67445L7.48234 1.14289C7.61523 0.478359 8.19875 0 8.87648 0Z" fill="#7373AD"/>
<path d="M10.0547 7.95328C10.0547 7.85969 10.0639 7.76625 10.0823 7.67445L11.3886 1.14289C11.5215 0.478359 12.105 0 12.7827 0H8.87648C8.19875 0 7.61531 0.478359 7.48234 1.14289L6.17602 7.67445C6.15766 7.76625 6.14844 7.85969 6.14844 7.95328C6.14844 8.73852 6.785 9.375 7.57016 9.375H11.4764C10.6912 9.375 10.0547 8.73852 10.0547 7.95328Z" fill="#5F5F9B"/>
<path d="M37.3984 22.4219L28.8047 23.125L20.2109 22.4219C19.7795 22.4219 19.4297 22.0721 19.4297 21.6406V20.0781C19.4297 19.6466 19.7795 19.2969 20.2109 19.2969L28.8047 18.75L37.3984 19.2969C37.8299 19.2969 38.1797 19.6466 38.1797 20.0781V21.6406C38.1797 22.0721 37.8299 22.4219 37.3984 22.4219Z" fill="#CE846A"/>
<path d="M26.4609 21.6406V20.0781C26.4609 19.6466 26.8107 19.2969 27.2422 19.2969H20.2109C19.7795 19.2969 19.4297 19.6466 19.4297 20.0781V21.6406C19.4297 22.0721 19.7795 22.4219 20.2109 22.4219H27.2422C26.8107 22.4219 26.4609 22.0721 26.4609 21.6406Z" fill="#C3785C"/>
<path d="M20.2109 19.2969H37.3984C37.8299 19.2969 38.1797 18.9471 38.1797 18.5156V16.9531C38.1797 16.5216 37.8299 16.1719 37.3984 16.1719H20.2109C19.7795 16.1719 19.4297 16.5216 19.4297 16.9531V18.5156C19.4297 18.9471 19.7795 19.2969 20.2109 19.2969Z" fill="#DD9883"/>
<path d="M26.4609 18.5156V16.9531C26.4609 16.5216 26.8107 16.1719 27.2422 16.1719H20.2109C19.7795 16.1719 19.4297 16.5216 19.4297 16.9531V18.5156C19.4297 18.9471 19.7795 19.2969 20.2109 19.2969H27.2422C26.8107 19.2969 26.4609 18.9471 26.4609 18.5156Z" fill="#CE846A"/>
<path d="M37.3984 25.5469H20.2109C19.7795 25.5469 19.4297 25.1971 19.4297 24.7656V23.2031C19.4297 22.7716 19.7795 22.4219 20.2109 22.4219H37.3984C37.8299 22.4219 38.1797 22.7716 38.1797 23.2031V24.7656C38.1797 25.1971 37.8299 25.5469 37.3984 25.5469Z" fill="#DD9883"/>
<path d="M26.4609 24.7656V23.2031C26.4609 22.7716 26.8107 22.4219 27.2422 22.4219H20.2109C19.7795 22.4219 19.4297 22.7716 19.4297 23.2031V24.7656C19.4297 25.1971 19.7795 25.5469 20.2109 25.5469H27.2422C26.8107 25.5469 26.4609 25.1971 26.4609 24.7656Z" fill="#CE846A"/>
<path d="M20.2109 36.875C19.7795 36.875 19.4297 37.2248 19.4297 37.6562V39.2188C19.4297 39.6185 19.7301 39.9476 20.1173 39.9939C20.2783 39.9979 20.4397 40 20.6016 40C24.472 40 28.0732 38.8502 31.0846 36.875L26.2759 36.4844L20.2109 36.875Z" fill="#CE846A"/>
<path d="M20.2109 33.75C19.7795 33.75 19.4297 34.0998 19.4297 34.5312V36.0938C19.4297 36.5252 19.7795 36.875 20.2109 36.875H31.0846C32.4348 35.9895 33.6667 34.9387 34.7503 33.75H20.2109Z" fill="#DD9883"/>
<path d="M23.3359 36.0938V34.5312C23.3359 34.0998 23.6857 33.75 24.1172 33.75H20.2109C19.7795 33.75 19.4297 34.0998 19.4297 34.5312V36.0938C19.4297 36.5252 19.7795 36.875 20.2109 36.875H24.1172C23.6857 36.875 23.3359 36.5252 23.3359 36.0938Z" fill="#CE846A"/>
<path d="M23.3359 39.2188V37.6562C23.3359 37.2248 23.6857 36.875 24.1172 36.875H20.2109C19.7795 36.875 19.4297 37.2248 19.4297 37.6562V39.2188C19.4297 39.6185 19.7301 39.9476 20.1173 39.9939C20.2783 39.9979 20.4397 40 20.6016 40C21.6095 40 22.5991 39.9216 23.565 39.7714C23.4235 39.63 23.3359 39.4346 23.3359 39.2188Z" fill="#C3785C"/>
<path d="M28.8047 2.92969C28.4811 2.92969 28.2188 3.19203 28.2188 3.51562V11.7188C28.2188 12.0423 28.4811 12.3047 28.8047 12.3047C29.1283 12.3047 29.3906 12.0423 29.3906 11.7188V3.51562C29.3906 3.19203 29.1283 2.92969 28.8047 2.92969Z" fill="#D3DCFB"/>
<path d="M28.8047 12.8906C29.4519 12.8906 29.9766 12.366 29.9766 11.7188C29.9766 11.0715 29.4519 10.5469 28.8047 10.5469C28.1575 10.5469 27.6328 11.0715 27.6328 11.7188C27.6328 12.366 28.1575 12.8906 28.8047 12.8906Z" fill="#E9EFFF"/>
<path d="M23.5234 26.1328C23.1998 26.1328 22.9375 25.8705 22.9375 25.5469V16.1719C22.9375 15.8483 23.1998 15.5859 23.5234 15.5859C23.847 15.5859 24.1094 15.8483 24.1094 16.1719V25.5469C24.1094 25.8705 23.8471 26.1328 23.5234 26.1328Z" fill="#E9EFFF"/>
<path d="M34.0859 26.1328C34.4095 26.1328 34.6719 25.8705 34.6719 25.5469V16.1719C34.6719 15.8483 34.4095 15.5859 34.0859 15.5859C33.7623 15.5859 33.5 15.8483 33.5 16.1719V25.5469C33.5 25.8705 33.7623 26.1328 34.0859 26.1328Z" fill="#E9EFFF"/>
</g>
<defs>
<clipPath id="clip0_1677_111930">
<rect width="40" height="40" fill="white" transform="translate(0.601562)"/>
</clipPath>
</defs>
</svg>
